# Blender 4.0.2
# www.blender.org
o Handle
v 0.336342 0.040122 -0.004176
v -0.017910 0.059748 -0.081656
v -0.045118 0.059748 -0.063477
v -0.063297 0.059748 -0.036269
v -0.069681 0.059748 -0.004176
v -0.063297 0.059748 0.027918
v -0.045117 0.059748 0.055125
v -0.017910 0.059748 0.073304
v 0.014183 0.059748 0.079688
v 0.280092 0.106169 -0.002062
v -0.001215 0.106169 -0.059586
v -0.021010 0.106169 -0.046359
v -0.034529 0.106169 -0.026127
v -0.039277 0.106169 -0.002261
v -0.034529 0.106169 0.021605
v -0.021010 0.106169 0.041837
v -0.000778 0.106169 0.055356
v 0.023249 0.106169 0.060136
v -0.045118 0.098795 -0.063477
v -0.017910 0.098795 -0.081656
v -0.063297 0.098795 -0.036269
v -0.069681 0.098795 -0.004176
v -0.063297 0.098795 0.027918
v -0.045117 0.098795 0.055125
v -0.017910 0.098795 0.073304
v 0.014183 0.098795 0.079688
v 0.376808 0.098795 -0.004176
vn -0.0000 -1.0000 -0.0000
vn -0.0000 1.0000 -0.0000
vn -0.9808 -0.0000 0.1951
vn -0.5556 -0.0000 -0.8315
vn 0.2519 -0.0000 0.9677
vn -0.8315 -0.0000 0.5556
vn -0.8315 -0.0000 -0.5556
vn 0.1909 -0.1317 -0.9727
vn -0.5556 -0.0000 0.8315
vn -0.9808 -0.0000 -0.1951
vn -0.1951 -0.0000 0.9808
vn -0.1433 0.9662 -0.2144
vn -0.2013 0.9703 -0.1345
vn -0.2327 0.9714 -0.0463
vn -0.2383 0.9700 0.0474
vn -0.2159 0.9657 0.1443
vn -0.1605 0.9574 0.2402
vn -0.0648 0.9432 0.3257
vn 0.0789 0.9367 0.3411
vn 0.0750 0.9274 -0.3666
vn -0.0578 -0.9983 0.0115
vn 0.2226 -0.1536 0.9627
vn 0.2137 -0.0000 -0.9769
vn 0.0943 0.9163 0.3893
vn 0.0646 0.9420 -0.3293
vt 0.305854 0.438538
vt 0.612202 0.377601
vt 0.479386 0.322587
vt 0.430223 0.401315
vt 0.612720 0.476908
vt 0.484120 1.105973
vt 0.551266 0.433397
vt 0.479386 0.520851
vt 0.479386 0.433397
vt 0.377601 0.433397
vt 0.438538 0.520851
vt 0.438538 0.433397
vt 1.277687 0.389442
vt 0.510417 0.520851
vt 0.510417 0.433397
vt 0.612202 0.433397
vt 0.551266 0.520851
vt 0.407507 0.433397
vt 0.346570 0.520851
vt 0.346570 0.433397
vt 1.322587 0.520851
vt 0.377601 0.520851
vt 0.407507 0.520851
vt 0.384908 0.431594
vt 0.346570 0.377601
vt 0.407507 0.336885
vt 0.483675 0.390683
vt 0.551266 0.336885
vt 0.537127 0.401315
vt 0.582442 0.431594
vt 0.652919 0.438538
vt 0.667216 0.510417
vt 0.623424 0.530722
vt 0.479386 1.322587
vt 0.355284 0.475930
vt 0.479386 1.277687
vt 0.612202 0.520851
s 0
f 2/1/1 7/2/1 5/3/1
f 13/4/2 17/5/2 10/6/2
f 6/7/3 22/8/3 5/9/3
f 3/10/4 20/11/4 2/12/4
f 1/13/5 26/14/5 9/15/5
f 7/16/6 23/17/6 6/7/6
f 4/18/7 19/19/7 3/20/7
f 1/13/8 20/11/8 27/21/8
f 8/12/9 24/22/9 7/10/9
f 5/9/10 21/23/10 4/18/10
f 9/15/11 25/11/11 8/12/11
f 12/24/12 20/1/12 19/25/12
f 13/4/13 19/25/13 21/26/13
f 13/4/14 22/3/14 14/27/14
f 14/27/15 23/28/15 15/29/15
f 15/29/16 24/2/16 16/30/16
f 16/30/17 25/31/17 17/5/17
f 17/5/18 26/32/18 18/33/18
f 10/6/19 26/32/19 27/34/19
f 10/6/20 20/1/20 11/35/20
f 4/26/1 3/25/1 2/1/1
f 2/1/21 1/36/21 9/32/21
f 9/32/1 8/31/1 7/2/1
f 7/2/1 6/28/1 5/3/1
f 5/3/1 4/26/1 2/1/1
f 2/1/1 9/32/1 7/2/1
f 11/35/2 12/24/2 13/4/2
f 13/4/2 14/27/2 15/29/2
f 15/29/2 16/30/2 17/5/2
f 17/5/2 18/33/2 10/6/2
f 10/6/2 11/35/2 13/4/2
f 13/4/2 15/29/2 17/5/2
f 6/7/3 23/17/3 22/8/3
f 3/10/4 19/22/4 20/11/4
f 1/13/22 27/21/22 26/14/22
f 7/16/6 24/37/6 23/17/6
f 4/18/7 21/23/7 19/19/7
f 1/13/23 2/12/23 20/11/23
f 8/12/9 25/11/9 24/22/9
f 5/9/10 22/8/10 21/23/10
f 9/15/11 26/14/11 25/11/11
f 12/24/12 11/35/12 20/1/12
f 13/4/13 12/24/13 19/25/13
f 13/4/14 21/26/14 22/3/14
f 14/27/15 22/3/15 23/28/15
f 15/29/16 23/28/16 24/2/16
f 16/30/17 24/2/17 25/31/17
f 17/5/18 25/31/18 26/32/18
f 10/6/24 18/33/24 26/32/24
f 10/6/25 27/34/25 20/1/25
o Circle
v 0.000000 0.000000 -0.377781
v -0.144570 0.000000 -0.349024
v -0.267131 0.000000 -0.267131
v -0.349024 0.000000 -0.144570
v -0.377781 0.000000 0.000000
v -0.349024 0.000000 0.144570
v -0.267131 0.000000 0.267131
v -0.144570 0.000000 0.349024
v 0.000000 0.000000 0.377781
v 0.144570 0.000000 0.349024
v 0.267131 0.000000 0.267131
v 0.349024 0.000000 0.144570
v 0.377781 0.000000 0.000000
v 0.349024 0.000000 -0.144570
v 0.267131 0.000000 -0.267131
v 0.144570 0.000000 -0.349024
v -0.110385 0.058185 -0.266494
v 0.000000 0.058185 -0.288451
v -0.203966 0.058185 -0.203966
v -0.266494 0.058185 -0.110385
v -0.288451 0.058185 0.000000
v -0.266494 0.058185 0.110385
v -0.203966 0.058185 0.203966
v -0.110385 0.058185 0.266494
v 0.000000 0.058185 0.288451
v 0.110385 0.058185 0.266494
v 0.203966 0.058185 0.203966
v 0.266494 0.058185 0.110385
v 0.288451 0.058185 0.000000
v 0.266494 0.058185 -0.110385
v 0.203966 0.058185 -0.203966
v 0.110385 0.058185 -0.266494
v -0.144570 0.031420 -0.349024
v 0.000000 0.031420 -0.377781
v -0.267131 0.031420 -0.267131
v -0.349024 0.031420 -0.144570
v -0.377781 0.031420 0.000000
v -0.349024 0.031420 0.144570
v -0.267131 0.031420 0.267131
v -0.144570 0.031420 0.349024
v 0.000000 0.031420 0.377781
v 0.144570 0.031420 0.349024
v 0.267131 0.031420 0.267131
v 0.349024 0.031420 0.144570
v 0.377781 0.031420 0.000000
v 0.349024 0.031420 -0.144570
v 0.267131 0.031420 -0.267131
v 0.144570 0.031420 -0.349024
vn -0.0000 -1.0000 -0.0000
vn -0.0000 1.0000 -0.0000
vn 0.9808 -0.0000 0.1951
vn -0.9808 -0.0000 0.1951
vn 0.9808 -0.0000 -0.1951
vn -0.8315 -0.0000 0.5556
vn 0.8315 -0.0000 -0.5556
vn -0.5556 -0.0000 0.8315
vn 0.5556 -0.0000 -0.8315
vn -0.1951 -0.0000 0.9808
vn -0.1951 -0.0000 -0.9808
vn 0.1951 -0.0000 -0.9808
vn 0.1951 -0.0000 0.9808
vn -0.5556 -0.0000 -0.8315
vn 0.5556 -0.0000 0.8315
vn -0.8315 -0.0000 -0.5556
vn 0.8315 -0.0000 0.5556
vn -0.9808 -0.0000 -0.1951
vn -0.0570 0.9564 -0.2866
vn -0.1623 0.9564 -0.2429
vn -0.2429 0.9564 -0.1623
vn -0.2866 0.9564 -0.0570
vn -0.2866 0.9564 0.0570
vn -0.2429 0.9564 0.1623
vn -0.1623 0.9564 0.2429
vn -0.0570 0.9564 0.2866
vn 0.0570 0.9564 0.2866
vn 0.1623 0.9564 0.2429
vn 0.2429 0.9564 0.1623
vn 0.2866 0.9564 0.0570
vn 0.2866 0.9564 -0.0570
vn 0.2429 0.9564 -0.1623
vn 0.1623 0.9564 -0.2429
vn 0.0570 0.9564 -0.2866
vt 0.691342 0.038060
vt 0.038060 0.308658
vt 0.308658 0.961940
vt 0.353903 0.147290
vt 0.852710 0.353903
vt 0.646097 0.852710
vt 0.500000 0.460046
vt 0.308658 0.501631
vt 0.308658 0.460046
vt 0.500000 0.501631
vt 0.691342 0.460046
vt 0.146447 0.460046
vt 0.853553 0.460046
vt 0.691342 0.501631
vt 0.146447 0.501631
vt 0.853553 0.501631
vt 0.500000 0.881770
vt 0.353903 0.852710
vt 0.230048 0.769952
vt 0.146447 0.853553
vt 0.038060 0.691342
vt 0.147290 0.646097
vt 0.000000 0.500000
vt 0.118230 0.500000
vt 0.147290 0.353903
vt 0.230048 0.230048
vt 0.146447 0.146447
vt 0.308658 0.038060
vt 0.500000 0.000000
vt 0.500000 0.118230
vt 0.646097 0.147290
vt 0.769952 0.230048
vt 0.853553 0.146447
vt 0.961940 0.308658
vt 1.000000 0.500000
vt 0.881770 0.500000
vt 0.961940 0.691342
vt 0.852710 0.646097
vt 0.769952 0.769952
vt 0.853553 0.853553
vt 0.691342 0.961940
vt 0.500000 1.000000
s 0
f 37/38/26 33/39/26 29/40/26
f 51/41/27 55/42/27 59/43/27
f 40/44/28 71/45/28 39/46/28
f 33/46/29 64/47/29 32/44/29
f 41/48/30 72/47/30 40/44/30
f 34/49/31 65/45/31 33/46/31
f 42/50/32 73/51/32 41/48/32
f 35/46/33 66/52/33 34/49/33
f 43/48/34 74/53/34 42/50/34
f 36/44/35 67/45/35 35/46/35
f 29/46/36 61/47/36 28/44/36
f 28/44/37 75/51/37 43/48/37
f 37/48/38 68/47/38 36/44/38
f 30/49/39 60/45/39 29/46/39
f 38/50/40 69/51/40 37/48/40
f 31/48/41 62/53/41 30/50/41
f 39/46/42 70/52/42 38/49/42
f 32/44/43 63/51/43 31/48/43
f 45/54/44 60/40/44 44/55/44
f 46/56/45 60/40/45 62/57/45
f 46/56/46 63/58/46 47/59/46
f 47/59/47 64/60/47 48/61/47
f 48/61/48 65/39/48 49/62/48
f 50/63/49 65/39/49 66/64/49
f 50/63/50 67/65/50 51/41/50
f 51/41/51 68/66/51 52/67/51
f 52/67/52 69/38/52 53/68/52
f 54/69/53 69/38/53 70/70/53
f 54/69/54 71/71/54 55/42/54
f 55/42/55 72/72/55 56/73/55
f 56/73/56 73/74/56 57/75/56
f 58/76/57 73/74/57 74/77/57
f 58/76/58 75/78/58 59/43/58
f 59/43/59 61/79/59 45/54/59
f 29/40/26 28/79/26 43/78/26
f 43/78/26 42/77/26 41/74/26
f 41/74/26 40/72/26 39/71/26
f 39/71/26 38/70/26 37/38/26
f 37/38/26 36/66/26 35/65/26
f 35/65/26 34/64/26 33/39/26
f 33/39/26 32/60/26 31/58/26
f 31/58/26 30/57/26 29/40/26
f 29/40/26 43/78/26 41/74/26
f 41/74/26 39/71/26 37/38/26
f 37/38/26 35/65/26 33/39/26
f 33/39/26 31/58/26 29/40/26
f 29/40/26 41/74/26 37/38/26
f 59/43/27 45/54/27 44/55/27
f 44/55/27 46/56/27 47/59/27
f 47/59/27 48/61/27 49/62/27
f 49/62/27 50/63/27 51/41/27
f 51/41/27 52/67/27 53/68/27
f 53/68/27 54/69/27 55/42/27
f 55/42/27 56/73/27 57/75/27
f 57/75/27 58/76/27 59/43/27
f 59/43/27 44/55/27 47/59/27
f 47/59/27 49/62/27 51/41/27
f 51/41/27 53/68/27 55/42/27
f 55/42/27 57/75/27 59/43/27
f 59/43/27 47/59/27 51/41/27
f 40/44/28 72/47/28 71/45/28
f 33/46/29 65/45/29 64/47/29
f 41/48/30 73/51/30 72/47/30
f 34/49/31 66/52/31 65/45/31
f 42/50/32 74/53/32 73/51/32
f 35/46/33 67/45/33 66/52/33
f 43/48/34 75/51/34 74/53/34
f 36/44/35 68/47/35 67/45/35
f 29/46/36 60/45/36 61/47/36
f 28/44/37 61/47/37 75/51/37
f 37/48/38 69/51/38 68/47/38
f 30/49/39 62/52/39 60/45/39
f 38/50/40 70/53/40 69/51/40
f 31/48/41 63/51/41 62/53/41
f 39/46/42 71/45/42 70/52/42
f 32/44/43 64/47/43 63/51/43
f 45/54/44 61/79/44 60/40/44
f 46/56/45 44/55/45 60/40/45
f 46/56/46 62/57/46 63/58/46
f 47/59/47 63/58/47 64/60/47
f 48/61/48 64/60/48 65/39/48
f 50/63/49 49/62/49 65/39/49
f 50/63/50 66/64/50 67/65/50
f 51/41/51 67/65/51 68/66/51
f 52/67/52 68/66/52 69/38/52
f 54/69/53 53/68/53 69/38/53
f 54/69/54 70/70/54 71/71/54
f 55/42/55 71/71/55 72/72/55
f 56/73/56 72/72/56 73/74/56
f 58/76/57 57/75/57 73/74/57
f 58/76/58 74/77/58 75/78/58
f 59/43/59 75/78/59 61/79/59
