# Blender 4.0.2
# www.blender.org
o Base
v 0.000000 0.000000 -1.000000
v -0.382683 0.000000 -0.923880
v -0.707107 0.000000 -0.707107
v -0.923880 0.000000 -0.382683
v -1.000000 0.000000 0.000000
v -0.923880 0.000000 0.382683
v -0.707107 0.000000 0.707107
v -0.382683 0.000000 0.923880
v 0.000000 0.000000 1.000000
v 0.382683 0.000000 0.923880
v 0.707107 0.000000 0.707107
v 0.923880 0.000000 0.382683
v 1.000000 0.000000 0.000000
v 0.923880 0.000000 -0.382683
v 0.707107 0.000000 -0.707107
v 0.382683 0.000000 -0.923880
v 0.000000 0.067433 -0.058707
v -0.022466 0.059591 -0.054239
v -0.041512 0.067433 -0.041512
v -0.054239 0.059591 -0.022466
v -0.058707 0.067433 0.000000
v -0.054239 0.059591 0.022466
v -0.041512 0.067433 0.041512
v -0.022466 0.059591 0.054239
v 0.000000 0.067433 0.058707
v 0.022466 0.059591 0.054239
v 0.041512 0.067433 0.041512
v 0.054239 0.059591 0.022466
v 0.058707 0.067433 0.000000
v 0.054239 0.059591 -0.022466
v 0.041512 0.067433 -0.041512
v 0.022466 0.059591 -0.054239
v -0.382683 0.101565 -0.923880
v 0.000000 0.101565 -1.000000
v -0.707107 0.101565 -0.707107
v -0.923880 0.101565 -0.382683
v -1.000000 0.101565 0.000000
v -0.923880 0.101565 0.382683
v -0.707107 0.101565 0.707107
v -0.382683 0.101565 0.923880
v 0.000000 0.101565 1.000000
v 0.382683 0.101565 0.923880
v 0.707107 0.101565 0.707107
v 0.923880 0.101565 0.382683
v 1.000000 0.101565 0.000000
v 0.923880 0.101565 -0.382683
v 0.707107 0.101565 -0.707107
v 0.382683 0.101565 -0.923880
v -0.333379 0.101565 -0.804847
v 0.000000 0.101565 -0.871160
v -0.616003 0.101565 -0.616003
v -0.804847 0.101565 -0.333379
v -0.871160 0.101565 0.000000
v -0.804847 0.101565 0.333379
v -0.616003 0.101565 0.616003
v -0.333379 0.101565 0.804847
v 0.000000 0.101565 0.871160
v 0.333379 0.101565 0.804847
v 0.616003 0.101565 0.616003
v 0.804847 0.101565 0.333379
v 0.871160 0.101565 0.000000
v 0.804847 0.101565 -0.333379
v 0.616003 0.101565 -0.616003
v 0.333379 0.101565 -0.804847
v -0.333379 0.059591 -0.804847
v 0.000000 0.059591 -0.871160
v -0.616003 0.059591 -0.616003
v -0.804847 0.059591 -0.333379
v -0.871160 0.059591 0.000000
v -0.804847 0.059591 0.333379
v -0.616003 0.059591 0.616003
v -0.333379 0.059591 0.804847
v 0.000000 0.059591 0.871160
v 0.333379 0.059591 0.804847
v 0.616003 0.059591 0.616003
v 0.804847 0.059591 0.333379
v 0.871160 0.059591 0.000000
v 0.804847 0.059591 -0.333379
v 0.616003 0.059591 -0.616003
v 0.333379 0.059591 -0.804847
v -0.022466 0.116103 -0.054239
v 0.000000 0.159591 -0.058707
v -0.041512 0.159591 -0.041512
v -0.054239 0.116103 -0.022466
v -0.058707 0.159591 0.000000
v -0.054239 0.116103 0.022466
v -0.041512 0.159591 0.041512
v -0.022466 0.116103 0.054239
v 0.000000 0.159591 0.058707
v 0.022466 0.116103 0.054239
v 0.041512 0.159591 0.041512
v 0.054239 0.116103 0.022466
v 0.058707 0.159591 0.000000
v 0.054239 0.116103 -0.022466
v 0.041512 0.159591 -0.041512
v 0.022466 0.116103 -0.054239
v 0.000000 0.292050 0.000000
vn -0.0000 -1.0000 -0.0000
vn 0.9808 -0.0000 -0.1951
vn 0.5556 -0.0000 -0.8315
vn -0.1951 -0.0000 0.9808
vn 0.1951 -0.0000 -0.9808
vn 0.1951 -0.0000 0.9808
vn -0.5556 -0.0000 -0.8315
vn 0.5556 -0.0000 0.8315
vn -0.8315 -0.0000 -0.5556
vn 0.8315 -0.0000 0.5556
vn -0.9808 -0.0000 -0.1951
vn 0.9808 -0.0000 0.1951
vn -0.9808 -0.0000 0.1951
vn -0.8315 -0.0000 0.5556
vn 0.8315 -0.0000 -0.5556
vn -0.5556 -0.0000 0.8315
vn -0.1951 -0.0000 -0.9808
vn -0.0000 1.0000 -0.0000
vn 0.2277 0.9435 -0.2406
vn -0.0091 0.9435 -0.3312
vn -0.2406 0.9435 -0.2277
vn -0.3312 0.9435 0.0091
vn -0.2277 0.9435 0.2406
vn 0.0091 0.9435 0.3312
vn 0.2406 0.9435 0.2277
vn 0.3312 0.9435 -0.0091
vn 0.0264 0.2914 -0.9562
vn -0.9562 0.2914 0.0264
vn -0.6575 0.2914 -0.6948
vn -0.6575 0.2914 0.6948
vn -0.9562 0.2914 -0.0264
vn 0.0264 0.2914 0.9562
vn -0.6948 0.2914 0.6575
vn 0.6948 0.2914 0.6575
vn -0.0264 0.2914 0.9562
vn 0.9562 0.2914 -0.0264
vn 0.6575 0.2914 0.6948
vn 0.6575 0.2914 -0.6948
vn 0.9562 0.2914 0.0264
vn -0.0264 0.2914 -0.9562
vn 0.6948 0.2914 -0.6575
vn -0.6948 0.2914 -0.6575
vn -0.3312 0.9435 -0.0091
vn -0.2406 0.9435 0.2277
vn -0.0091 0.9435 0.3312
vn 0.2277 0.9435 0.2406
vn 0.3312 0.9435 0.0091
vn 0.2406 0.9435 -0.2277
vn 0.0091 0.9435 -0.3312
vn -0.2277 0.9435 -0.2406
vt 0.000000 0.000000
s 0
f 11/1/1 7/1/1 3/1/1
f 29/1/2 94/1/2 93/1/2
f 48/1/3 15/1/3 16/1/3
f 41/1/4 8/1/4 9/1/4
f 34/1/5 16/1/5 1/1/5
f 42/1/6 9/1/6 10/1/6
f 35/1/7 2/1/7 3/1/7
f 43/1/8 10/1/8 11/1/8
f 36/1/9 3/1/9 4/1/9
f 44/1/10 11/1/10 12/1/10
f 37/1/11 4/1/11 5/1/11
f 45/1/12 12/1/12 13/1/12
f 38/1/13 5/1/13 6/1/13
f 46/1/2 13/1/2 14/1/2
f 39/1/14 6/1/14 7/1/14
f 47/1/15 14/1/15 15/1/15
f 40/1/16 7/1/16 8/1/16
f 76/1/11 61/1/11 77/1/11
f 75/1/9 60/1/9 76/1/9
f 74/1/7 59/1/7 75/1/7
f 73/1/17 58/1/17 74/1/17
f 72/1/5 57/1/5 73/1/5
f 71/1/3 56/1/3 72/1/3
f 70/1/15 55/1/15 71/1/15
f 40/1/18 56/1/18 55/1/18
f 63/1/18 48/1/18 64/1/18
f 77/1/13 62/1/13 78/1/13
f 78/1/14 63/1/14 79/1/14
f 66/1/6 49/1/6 65/1/6
f 79/1/16 64/1/16 80/1/16
f 65/1/8 51/1/8 67/1/8
f 80/1/4 50/1/4 66/1/4
f 67/1/10 52/1/10 68/1/10
f 68/1/12 53/1/12 69/1/12
f 69/1/2 54/1/2 70/1/2
f 18/1/18 66/1/18 65/1/18
f 18/1/19 67/1/19 19/1/19
f 20/1/18 67/1/18 68/1/18
f 20/1/20 69/1/20 21/1/20
f 22/1/18 69/1/18 70/1/18
f 22/1/21 71/1/21 23/1/21
f 24/1/18 71/1/18 72/1/18
f 24/1/22 73/1/22 25/1/22
f 26/1/18 73/1/18 74/1/18
f 26/1/23 75/1/23 27/1/23
f 28/1/18 75/1/18 76/1/18
f 28/1/24 77/1/24 29/1/24
f 30/1/18 77/1/18 78/1/18
f 30/1/25 79/1/25 31/1/25
f 32/1/18 79/1/18 80/1/18
f 32/1/26 66/1/26 17/1/26
f 23/1/14 86/1/14 22/1/14
f 31/1/15 94/1/15 30/1/15
f 23/1/16 88/1/16 87/1/16
f 31/1/3 96/1/3 95/1/3
f 25/1/4 88/1/4 24/1/4
f 17/1/17 81/1/17 82/1/17
f 17/1/5 96/1/5 32/1/5
f 25/1/6 90/1/6 89/1/6
f 19/1/7 81/1/7 18/1/7
f 27/1/8 90/1/8 26/1/8
f 19/1/9 84/1/9 83/1/9
f 27/1/10 92/1/10 91/1/10
f 21/1/11 84/1/11 20/1/11
f 29/1/12 92/1/12 28/1/12
f 21/1/13 86/1/13 85/1/13
f 81/1/27 83/1/27 97/1/27
f 83/1/28 84/1/28 97/1/28
f 84/1/29 85/1/29 97/1/29
f 85/1/30 86/1/30 97/1/30
f 86/1/31 87/1/31 97/1/31
f 87/1/32 88/1/32 97/1/32
f 88/1/33 89/1/33 97/1/33
f 89/1/34 90/1/34 97/1/34
f 90/1/35 91/1/35 97/1/35
f 91/1/36 92/1/36 97/1/36
f 92/1/37 93/1/37 97/1/37
f 93/1/38 94/1/38 97/1/38
f 94/1/39 95/1/39 97/1/39
f 95/1/40 96/1/40 97/1/40
f 96/1/41 82/1/41 97/1/41
f 82/1/42 81/1/42 97/1/42
f 33/1/17 1/1/17 2/1/17
f 3/1/1 2/1/1 1/1/1
f 1/1/1 16/1/1 15/1/1
f 15/1/1 14/1/1 13/1/1
f 13/1/1 12/1/1 11/1/1
f 11/1/1 10/1/1 9/1/1
f 9/1/1 8/1/1 7/1/1
f 7/1/1 6/1/1 5/1/1
f 5/1/1 4/1/1 3/1/1
f 3/1/1 1/1/1 15/1/1
f 15/1/1 13/1/1 11/1/1
f 11/1/1 9/1/1 7/1/1
f 7/1/1 5/1/1 3/1/1
f 3/1/1 15/1/1 11/1/1
f 29/1/2 30/1/2 94/1/2
f 48/1/3 47/1/3 15/1/3
f 41/1/4 40/1/4 8/1/4
f 34/1/5 48/1/5 16/1/5
f 42/1/6 41/1/6 9/1/6
f 35/1/7 33/1/7 2/1/7
f 43/1/8 42/1/8 10/1/8
f 36/1/9 35/1/9 3/1/9
f 44/1/10 43/1/10 11/1/10
f 37/1/11 36/1/11 4/1/11
f 45/1/12 44/1/12 12/1/12
f 38/1/13 37/1/13 5/1/13
f 46/1/2 45/1/2 13/1/2
f 39/1/14 38/1/14 6/1/14
f 47/1/15 46/1/15 14/1/15
f 40/1/16 39/1/16 7/1/16
f 76/1/11 60/1/11 61/1/11
f 75/1/9 59/1/9 60/1/9
f 74/1/7 58/1/7 59/1/7
f 73/1/17 57/1/17 58/1/17
f 72/1/5 56/1/5 57/1/5
f 71/1/3 55/1/3 56/1/3
f 70/1/15 54/1/15 55/1/15
f 50/1/18 64/1/18 48/1/18
f 48/1/18 34/1/18 33/1/18
f 33/1/18 35/1/18 36/1/18
f 36/1/18 37/1/18 38/1/18
f 38/1/18 39/1/18 40/1/18
f 40/1/18 41/1/18 42/1/18
f 42/1/18 43/1/18 44/1/18
f 44/1/18 45/1/18 46/1/18
f 46/1/18 47/1/18 63/1/18
f 46/1/18 63/1/18 62/1/18
f 50/1/18 48/1/18 33/1/18
f 49/1/18 50/1/18 33/1/18
f 46/1/18 62/1/18 61/1/18
f 44/1/18 46/1/18 61/1/18
f 51/1/18 49/1/18 33/1/18
f 51/1/18 33/1/18 36/1/18
f 44/1/18 61/1/18 60/1/18
f 44/1/18 60/1/18 59/1/18
f 52/1/18 51/1/18 36/1/18
f 53/1/18 52/1/18 36/1/18
f 42/1/18 44/1/18 59/1/18
f 42/1/18 59/1/18 58/1/18
f 53/1/18 36/1/18 38/1/18
f 54/1/18 53/1/18 38/1/18
f 42/1/18 58/1/18 57/1/18
f 40/1/18 42/1/18 57/1/18
f 55/1/18 54/1/18 38/1/18
f 40/1/18 57/1/18 56/1/18
f 55/1/18 38/1/18 40/1/18
f 63/1/18 47/1/18 48/1/18
f 77/1/13 61/1/13 62/1/13
f 78/1/14 62/1/14 63/1/14
f 66/1/6 50/1/6 49/1/6
f 79/1/16 63/1/16 64/1/16
f 65/1/8 49/1/8 51/1/8
f 80/1/4 64/1/4 50/1/4
f 67/1/10 51/1/10 52/1/10
f 68/1/12 52/1/12 53/1/12
f 69/1/2 53/1/2 54/1/2
f 18/1/43 17/1/43 66/1/43
f 18/1/18 65/1/18 67/1/18
f 20/1/44 19/1/44 67/1/44
f 20/1/18 68/1/18 69/1/18
f 22/1/45 21/1/45 69/1/45
f 22/1/18 70/1/18 71/1/18
f 24/1/46 23/1/46 71/1/46
f 24/1/18 72/1/18 73/1/18
f 26/1/47 25/1/47 73/1/47
f 26/1/18 74/1/18 75/1/18
f 28/1/48 27/1/48 75/1/48
f 28/1/18 76/1/18 77/1/18
f 30/1/49 29/1/49 77/1/49
f 30/1/18 78/1/18 79/1/18
f 32/1/50 31/1/50 79/1/50
f 32/1/18 80/1/18 66/1/18
f 23/1/14 87/1/14 86/1/14
f 31/1/15 95/1/15 94/1/15
f 23/1/16 24/1/16 88/1/16
f 31/1/3 32/1/3 96/1/3
f 25/1/4 89/1/4 88/1/4
f 17/1/17 18/1/17 81/1/17
f 17/1/5 82/1/5 96/1/5
f 25/1/6 26/1/6 90/1/6
f 19/1/7 83/1/7 81/1/7
f 27/1/8 91/1/8 90/1/8
f 19/1/9 20/1/9 84/1/9
f 27/1/10 28/1/10 92/1/10
f 21/1/11 85/1/11 84/1/11
f 29/1/12 93/1/12 92/1/12
f 21/1/13 22/1/13 86/1/13
f 33/1/17 34/1/17 1/1/17
o Circle
v 0.000000 0.060818 -0.817166
v -0.077480 0.060818 0.032093
v -0.059301 0.060818 0.059301
v -0.032093 0.060818 0.077480
v 0.000000 0.060818 0.083864
v 0.032093 0.060818 0.077480
v 0.059301 0.060818 0.059301
v 0.077480 0.060818 0.032093
v 0.083864 0.060818 0.000000
v 0.002114 0.107239 -0.615119
v -0.055410 0.107239 0.015398
v -0.042183 0.107239 0.035194
v -0.021951 0.107239 0.048713
v 0.001915 0.107239 0.053460
v 0.025781 0.107239 0.048713
v 0.046013 0.107239 0.035194
v 0.059532 0.107239 0.014961
v 0.064312 0.107239 -0.009066
v -0.059301 0.099865 0.059301
v -0.077480 0.099865 0.032093
v -0.032093 0.099865 0.077480
v 0.000000 0.099865 0.083864
v 0.032093 0.099865 0.077480
v 0.059301 0.099865 0.059301
v 0.077480 0.099865 0.032093
v 0.083864 0.099865 0.000000
v 0.000000 0.099865 -0.817166
vn -0.0000 -1.0000 -0.0000
vn -0.0000 1.0000 -0.0000
vn 0.1951 -0.0000 0.9808
vn -0.8315 -0.0000 0.5556
vn 0.9948 -0.0000 -0.1021
vn 0.5556 -0.0000 0.8315
vn -0.5556 -0.0000 0.8315
vn -0.9959 -0.0000 -0.0909
vn 0.8315 -0.0000 0.5556
vn -0.1951 -0.0000 0.9808
vn 0.9808 -0.0000 0.1951
vn -0.2144 0.9662 0.1433
vn -0.1345 0.9703 0.2013
vn -0.0463 0.9714 0.2327
vn 0.0474 0.9700 0.2383
vn 0.1443 0.9657 0.2159
vn 0.2402 0.9574 0.1605
vn 0.3257 0.9432 0.0648
vn 0.3679 0.9291 -0.0378
vn -0.3376 0.9408 -0.0308
vt 0.000000 0.000000
s 0
f 99/2/51 104/2/51 102/2/51
f 110/2/52 114/2/52 107/2/52
f 103/2/53 119/2/53 102/2/53
f 100/2/54 117/2/54 99/2/54
f 98/2/55 123/2/55 106/2/55
f 104/2/56 120/2/56 103/2/56
f 101/2/57 116/2/57 100/2/57
f 99/2/58 124/2/58 98/2/58
f 105/2/59 121/2/59 104/2/59
f 102/2/60 118/2/60 101/2/60
f 106/2/61 122/2/61 105/2/61
f 109/2/62 117/2/62 116/2/62
f 110/2/63 116/2/63 118/2/63
f 110/2/64 119/2/64 111/2/64
f 111/2/65 120/2/65 112/2/65
f 112/2/66 121/2/66 113/2/66
f 113/2/67 122/2/67 114/2/67
f 114/2/68 123/2/68 115/2/68
f 107/2/69 123/2/69 124/2/69
f 107/2/70 117/2/70 108/2/70
f 101/2/51 100/2/51 99/2/51
f 99/2/51 98/2/51 106/2/51
f 106/2/51 105/2/51 104/2/51
f 104/2/51 103/2/51 102/2/51
f 102/2/51 101/2/51 99/2/51
f 99/2/51 106/2/51 104/2/51
f 108/2/52 109/2/52 110/2/52
f 110/2/52 111/2/52 112/2/52
f 112/2/52 113/2/52 114/2/52
f 114/2/52 115/2/52 107/2/52
f 107/2/52 108/2/52 110/2/52
f 110/2/52 112/2/52 114/2/52
f 103/2/53 120/2/53 119/2/53
f 100/2/54 116/2/54 117/2/54
f 98/2/55 124/2/55 123/2/55
f 104/2/56 121/2/56 120/2/56
f 101/2/57 118/2/57 116/2/57
f 99/2/58 117/2/58 124/2/58
f 105/2/59 122/2/59 121/2/59
f 102/2/60 119/2/60 118/2/60
f 106/2/61 123/2/61 122/2/61
f 109/2/62 108/2/62 117/2/62
f 110/2/63 109/2/63 116/2/63
f 110/2/64 118/2/64 119/2/64
f 111/2/65 119/2/65 120/2/65
f 112/2/66 120/2/66 121/2/66
f 113/2/67 121/2/67 122/2/67
f 114/2/68 122/2/68 123/2/68
f 107/2/69 115/2/69 123/2/69
f 107/2/70 124/2/70 117/2/70
