# Blender 4.0.2
# www.blender.org
o Base
v 0.000000 0.000000 -1.000000
v -0.382683 0.000000 -0.923880
v -0.707107 0.000000 -0.707107
v -0.923880 0.000000 -0.382683
v -1.000000 0.000000 0.000000
v -0.923880 0.000000 0.382683
v -0.707107 0.000000 0.707107
v -0.382683 0.000000 0.923880
v 0.000000 0.000000 1.000000
v 0.382683 0.000000 0.923880
v 0.707107 0.000000 0.707107
v 0.923880 0.000000 0.382683
v 1.000000 0.000000 0.000000
v 0.923880 0.000000 -0.382683
v 0.707107 0.000000 -0.707107
v 0.382683 0.000000 -0.923880
v 0.000000 0.067433 -0.058707
v -0.022466 0.059591 -0.054239
v -0.041512 0.067433 -0.041512
v -0.054239 0.059591 -0.022466
v -0.058707 0.067433 0.000000
v -0.054239 0.059591 0.022466
v -0.041512 0.067433 0.041512
v -0.022466 0.059591 0.054239
v 0.000000 0.067433 0.058707
v 0.022466 0.059591 0.054239
v 0.041512 0.067433 0.041512
v 0.054239 0.059591 0.022466
v 0.058707 0.067433 0.000000
v 0.054239 0.059591 -0.022466
v 0.041512 0.067433 -0.041512
v 0.022466 0.059591 -0.054239
v -0.382683 0.101565 -0.923880
v 0.000000 0.101565 -1.000000
v -0.707107 0.101565 -0.707107
v -0.923880 0.101565 -0.382683
v -1.000000 0.101565 0.000000
v -0.923880 0.101565 0.382683
v -0.707107 0.101565 0.707107
v -0.382683 0.101565 0.923880
v 0.000000 0.101565 1.000000
v 0.382683 0.101565 0.923880
v 0.707107 0.101565 0.707107
v 0.923880 0.101565 0.382683
v 1.000000 0.101565 0.000000
v 0.923880 0.101565 -0.382683
v 0.707107 0.101565 -0.707107
v 0.382683 0.101565 -0.923880
v -0.333379 0.101565 -0.804847
v 0.000000 0.101565 -0.871160
v -0.616003 0.101565 -0.616003
v -0.804847 0.101565 -0.333379
v -0.871160 0.101565 0.000000
v -0.804847 0.101565 0.333379
v -0.616003 0.101565 0.616003
v -0.333379 0.101565 0.804847
v 0.000000 0.101565 0.871160
v 0.333379 0.101565 0.804847
v 0.616003 0.101565 0.616003
v 0.804847 0.101565 0.333379
v 0.109732 0.101565 0.000000
v 0.804847 0.101565 -0.333379
v 0.616003 0.101565 -0.616003
v 0.333379 0.101565 -0.804847
v -0.333379 0.059591 -0.804847
v 0.000000 0.059591 -0.871160
v -0.616003 0.059591 -0.616003
v -0.804847 0.059591 -0.333379
v -0.871160 0.059591 0.000000
v -0.804847 0.059591 0.333379
v -0.616003 0.059591 0.616003
v -0.333379 0.059591 0.804847
v 0.000000 0.059591 0.871160
v 0.333379 0.059591 0.804847
v 0.616003 0.059591 0.616003
v 0.804847 0.059591 0.333379
v 0.109732 0.059591 0.000000
v 0.804847 0.059591 -0.333379
v 0.616003 0.059591 -0.616003
v 0.333379 0.059591 -0.804847
v -0.022466 0.116103 -0.054239
v 0.000000 0.159591 -0.058707
v -0.041512 0.159591 -0.041512
v -0.054239 0.116103 -0.022466
v -0.058707 0.159591 0.000000
v -0.054239 0.116103 0.022466
v -0.041512 0.159591 0.041512
v -0.022466 0.116103 0.054239
v 0.000000 0.159591 0.058707
v 0.022466 0.116103 0.054239
v 0.041512 0.159591 0.041512
v 0.054239 0.116103 0.022466
v 0.058707 0.159591 0.000000
v 0.054239 0.116103 -0.022466
v 0.041512 0.159591 -0.041512
v 0.022466 0.116103 -0.054239
v 0.000000 0.292050 0.000000
vn -0.0000 -1.0000 -0.0000
vn 0.9808 -0.0000 -0.1951
vn 0.5556 -0.0000 -0.8315
vn -0.1951 -0.0000 0.9808
vn 0.1951 -0.0000 -0.9808
vn 0.1951 -0.0000 0.9808
vn -0.5556 -0.0000 -0.8315
vn 0.5556 -0.0000 0.8315
vn -0.8315 -0.0000 -0.5556
vn 0.8315 -0.0000 0.5556
vn -0.9808 -0.0000 -0.1951
vn 0.9808 -0.0000 0.1951
vn -0.9808 -0.0000 0.1951
vn -0.8315 -0.0000 0.5556
vn 0.8315 -0.0000 -0.5556
vn -0.5556 -0.0000 0.8315
vn -0.4324 -0.0000 0.9017
vn -0.1951 -0.0000 -0.9808
vn -0.0000 1.0000 -0.0000
vn -0.4324 -0.0000 -0.9017
vn 0.2277 0.9435 -0.2406
vn -0.0091 0.9435 -0.3312
vn -0.2406 0.9435 -0.2277
vn -0.3312 0.9435 0.0091
vn -0.2277 0.9435 0.2406
vn 0.1422 0.9254 0.3513
vn 0.2406 0.9435 0.2277
vn 0.3312 0.9435 -0.0091
vn 0.0264 0.2914 -0.9562
vn -0.9562 0.2914 0.0264
vn -0.6575 0.2914 -0.6948
vn -0.6575 0.2914 0.6948
vn -0.9562 0.2914 -0.0264
vn 0.0264 0.2914 0.9562
vn -0.6948 0.2914 0.6575
vn 0.6948 0.2914 0.6575
vn -0.0264 0.2914 0.9562
vn 0.9562 0.2914 -0.0264
vn 0.6575 0.2914 0.6948
vn 0.6575 0.2914 -0.6948
vn 0.9562 0.2914 0.0264
vn -0.0264 0.2914 -0.9562
vn 0.6948 0.2914 -0.6575
vn -0.6948 0.2914 -0.6575
vn -0.3312 0.9435 -0.0091
vn -0.2406 0.9435 0.2277
vn -0.0091 0.9435 0.3312
vn 0.2277 0.9435 0.2406
vn 0.3312 0.9435 0.0091
vn 0.2406 0.9435 -0.2277
vn 0.1422 0.9254 -0.3513
vn -0.2277 0.9435 -0.2406
vt 0.802141 0.197216
vt 0.205764 0.197216
vt 0.205764 0.793592
vt 0.496743 0.487434
vt 0.506217 0.507958
vt 0.496743 0.526297
vt 0.665331 0.501828
vt 0.802141 0.458997
vt 0.665331 0.458997
vt 0.503953 0.501828
vt 0.342574 0.458997
vt 0.503953 0.458997
vt 0.205764 0.501828
vt 0.205764 0.458997
vt 0.802141 0.501828
vt 0.658121 0.501828
vt 0.794931 0.458997
vt 0.658121 0.458997
vt 0.335364 0.501828
vt 0.198554 0.458997
vt 0.335364 0.458997
vt 0.496743 0.501828
vt 0.496743 0.458997
vt 0.198554 0.501828
vt 0.794931 0.501828
vt 0.342574 0.501828
vt 0.843358 0.484127
vt 0.550227 0.501828
vt 0.550227 0.484127
vt 0.236973 0.484127
vt 0.356156 0.501828
vt 0.356156 0.484127
vt 0.644539 0.484127
vt 0.763722 0.501828
vt 0.763722 0.484127
vt 0.503953 0.484127
vt 0.644539 0.501828
vt 0.363366 0.484127
vt 0.244183 0.484127
vt 0.363366 0.501828
vt 0.236973 0.501828
vt 0.114351 0.334026
vt 0.342574 0.105802
vt 0.244183 0.235634
vt 0.763722 0.755174
vt 0.665331 0.885006
vt 0.644539 0.834809
vt 0.843358 0.501828
vt 0.637329 0.484127
vt 0.756512 0.501828
vt 0.756512 0.484127
vt 0.244183 0.501828
vt 0.637329 0.501828
vt 0.496743 0.484127
vt 0.494478 0.518276
vt 0.503953 0.862774
vt 0.363366 0.834809
vt 0.244183 0.755174
vt 0.486447 0.512910
vt 0.481080 0.504878
vt 0.164547 0.635990
vt 0.136583 0.495404
vt 0.479196 0.495404
vt 0.481080 0.485930
vt 0.164547 0.354818
vt 0.486447 0.477898
vt 0.494478 0.472531
vt 0.363366 0.155998
vt 0.503953 0.128034
vt 0.503953 0.470647
vt 0.513427 0.472531
vt 0.644539 0.155998
vt 0.763722 0.235634
vt 0.521458 0.477898
vt 0.526825 0.485930
vt 0.843358 0.354818
vt 0.550227 0.495404
vt 0.528710 0.495404
vt 0.526825 0.504878
vt 0.843358 0.635990
vt 0.521458 0.512910
vt 0.513427 0.518276
vt 0.503953 0.520161
vt 0.479237 0.487434
vt 0.487268 0.507958
vt 0.487268 0.484127
vt 0.514248 0.487434
vt 0.506217 0.484127
vt 0.486447 0.487434
vt 0.494478 0.507958
vt 0.486447 0.526297
vt 0.521458 0.487434
vt 0.513427 0.507958
vt 0.521458 0.526297
vt 0.503953 0.487434
vt 0.494478 0.484127
vt 0.503953 0.526297
vt 0.513427 0.484127
vt 0.514248 0.526297
vt 0.479237 0.526297
vt 0.503953 0.582156
vt 0.496743 0.582156
vt 0.481080 0.507958
vt 0.479196 0.526297
vt 0.473870 0.507958
vt 0.471985 0.526297
vt 0.526825 0.507958
vt 0.528710 0.526297
vt 0.519615 0.507958
vt 0.521500 0.526297
vt 0.342574 0.885006
vt 0.503953 0.917106
vt 0.802141 0.793592
vt 0.893554 0.656782
vt 0.925655 0.495404
vt 0.893554 0.334026
vt 0.665331 0.105802
vt 0.503953 0.073702
vt 0.082251 0.495404
vt 0.114351 0.656782
s 0
f 11/1/1 7/2/1 3/3/1
f 29/4/2 94/5/2 93/6/2
f 48/7/3 15/8/3 16/9/3
f 41/10/4 8/11/4 9/12/4
f 34/10/5 16/9/5 1/12/5
f 42/7/6 9/12/6 10/9/6
f 35/13/7 2/11/7 3/14/7
f 43/15/8 10/9/8 11/8/8
f 36/16/9 3/17/9 4/18/9
f 44/19/10 11/20/10 12/21/10
f 37/22/11 4/18/11 5/23/11
f 45/22/12 12/21/12 13/23/12
f 38/19/13 5/23/13 6/21/13
f 46/16/2 13/23/2 14/18/2
f 39/24/14 6/21/14 7/20/14
f 47/25/15 14/18/15 15/17/15
f 40/26/16 7/14/16 8/11/16
f 76/27/17 61/28/17 77/29/17
f 75/30/9 60/31/9 76/32/9
f 74/33/7 59/34/7 75/35/7
f 73/36/18 58/37/18 74/33/18
f 72/38/5 57/10/5 73/36/5
f 71/39/3 56/40/3 72/38/3
f 70/32/15 55/41/15 71/30/15
f 38/42/19 40/43/19 55/44/19
f 63/45/19 48/46/19 64/47/19
f 77/29/20 62/48/20 78/27/20
f 78/49/14 63/50/14 79/51/14
f 66/36/6 49/40/6 65/38/6
f 79/35/16 64/37/16 80/33/16
f 65/38/8 51/52/8 67/39/8
f 80/33/4 50/10/4 66/36/4
f 67/51/10 52/53/10 68/49/10
f 68/49/12 53/22/12 69/54/12
f 69/54/2 54/31/2 70/32/2
f 18/55/19 66/56/19 65/57/19
f 18/55/21 67/58/21 19/59/21
f 20/60/19 67/58/19 68/61/19
f 20/60/22 69/62/22 21/63/22
f 22/64/19 69/62/19 70/65/19
f 22/64/23 71/44/23 23/66/23
f 24/67/19 71/44/19 72/68/19
f 24/67/24 73/69/24 25/70/24
f 26/71/19 73/69/19 74/72/19
f 26/71/25 75/73/25 27/74/25
f 28/75/19 75/73/19 76/76/19
f 28/75/26 77/77/26 29/78/26
f 30/79/19 77/77/19 78/80/19
f 30/79/27 79/45/27 31/81/27
f 32/82/19 79/45/19 80/47/19
f 32/82/28 66/56/28 17/83/28
f 23/84/14 86/85/14 22/86/14
f 31/87/15 94/5/15 30/88/15
f 23/89/16 88/90/16 87/91/16
f 31/92/3 96/93/3 95/94/3
f 25/95/4 88/90/4 24/96/4
f 17/95/18 81/90/18 82/97/18
f 17/95/5 96/93/5 32/98/5
f 25/95/6 90/93/6 89/97/6
f 19/89/7 81/90/7 18/96/7
f 27/92/8 90/93/8 26/98/8
f 19/87/9 84/5/9 83/99/9
f 27/84/10 92/85/10 91/100/10
f 21/4/11 84/5/11 20/88/11
f 29/4/12 92/85/12 28/86/12
f 21/4/13 86/85/13 85/6/13
f 81/90/29 83/91/29 97/101/29
f 83/99/30 84/5/30 97/102/30
f 84/103/31 85/104/31 97/101/31
f 85/104/32 86/103/32 97/101/32
f 86/85/33 87/100/33 97/102/33
f 87/91/34 88/90/34 97/101/34
f 88/105/35 89/106/35 97/102/35
f 89/106/36 90/105/36 97/102/36
f 90/93/37 91/94/37 97/101/37
f 91/100/38 92/85/38 97/102/38
f 92/107/39 93/108/39 97/101/39
f 93/108/40 94/107/40 97/101/40
f 94/5/41 95/99/41 97/102/41
f 95/94/42 96/93/42 97/101/42
f 96/109/43 82/110/43 97/102/43
f 82/110/44 81/109/44 97/102/44
f 33/26/18 1/12/18 2/11/18
f 3/3/1 2/111/1 1/112/1
f 1/112/1 16/46/1 15/113/1
f 15/113/1 14/114/1 13/115/1
f 13/115/1 12/116/1 11/1/1
f 11/1/1 10/117/1 9/118/1
f 9/118/1 8/43/1 7/2/1
f 7/2/1 6/42/1 5/119/1
f 5/119/1 4/120/1 3/3/1
f 3/3/1 1/112/1 15/113/1
f 15/113/1 13/115/1 11/1/1
f 11/1/1 9/118/1 7/2/1
f 7/2/1 5/119/1 3/3/1
f 3/3/1 15/113/1 11/1/1
f 29/4/2 30/88/2 94/5/2
f 48/7/3 47/15/3 15/8/3
f 41/10/4 40/26/4 8/11/4
f 34/10/5 48/7/5 16/9/5
f 42/7/6 41/10/6 9/12/6
f 35/13/7 33/26/7 2/11/7
f 43/15/8 42/7/8 10/9/8
f 36/16/9 35/25/9 3/17/9
f 44/19/10 43/24/10 11/20/10
f 37/22/11 36/16/11 4/18/11
f 45/22/12 44/19/12 12/21/12
f 38/19/13 37/22/13 5/23/13
f 46/16/2 45/22/2 13/23/2
f 39/24/14 38/19/14 6/21/14
f 47/25/15 46/16/15 14/18/15
f 40/26/16 39/13/16 7/14/16
f 76/27/17 60/48/17 61/28/17
f 75/30/9 59/41/9 60/31/9
f 74/33/7 58/37/7 59/34/7
f 73/36/18 57/10/18 58/37/18
f 72/38/5 56/40/5 57/10/5
f 71/39/3 55/52/3 56/40/3
f 70/32/15 54/31/15 55/41/15
f 50/56/19 64/47/19 48/46/19
f 48/46/19 34/112/19 33/111/19
f 33/111/19 35/3/19 36/120/19
f 36/120/19 37/119/19 38/42/19
f 38/42/19 39/2/19 40/43/19
f 40/43/19 41/118/19 42/117/19
f 42/117/19 43/1/19 44/116/19
f 44/116/19 45/115/19 46/114/19
f 46/114/19 47/113/19 63/45/19
f 62/80/19 61/77/19 60/76/19
f 46/114/19 63/45/19 62/80/19
f 50/56/19 48/46/19 33/111/19
f 49/57/19 50/56/19 33/111/19
f 44/116/19 46/114/19 62/80/19
f 44/116/19 62/80/19 60/76/19
f 51/58/19 49/57/19 33/111/19
f 51/58/19 33/111/19 36/120/19
f 44/116/19 60/76/19 59/73/19
f 42/117/19 44/116/19 59/73/19
f 52/61/19 51/58/19 36/120/19
f 53/62/19 52/61/19 36/120/19
f 42/117/19 59/73/19 58/72/19
f 42/117/19 58/72/19 57/69/19
f 53/62/19 36/120/19 38/42/19
f 54/65/19 53/62/19 38/42/19
f 40/43/19 42/117/19 57/69/19
f 40/43/19 57/69/19 56/68/19
f 55/44/19 54/65/19 38/42/19
f 40/43/19 56/68/19 55/44/19
f 63/45/19 47/113/19 48/46/19
f 77/29/20 61/28/20 62/48/20
f 78/49/14 62/53/14 63/50/14
f 66/36/6 50/10/6 49/40/6
f 79/35/16 63/34/16 64/37/16
f 65/38/8 49/40/8 51/52/8
f 80/33/4 64/37/4 50/10/4
f 67/51/10 51/50/10 52/53/10
f 68/49/12 52/53/12 53/22/12
f 69/54/2 53/22/2 54/31/2
f 18/55/45 17/83/45 66/56/45
f 18/55/19 65/57/19 67/58/19
f 20/60/46 19/59/46 67/58/46
f 20/60/19 68/61/19 69/62/19
f 22/64/47 21/63/47 69/62/47
f 22/64/19 70/65/19 71/44/19
f 24/67/48 23/66/48 71/44/48
f 24/67/19 72/68/19 73/69/19
f 26/71/49 25/70/49 73/69/49
f 26/71/19 74/72/19 75/73/19
f 28/75/50 27/74/50 75/73/50
f 28/75/19 76/76/19 77/77/19
f 30/79/51 29/78/51 77/77/51
f 30/79/19 78/80/19 79/45/19
f 32/82/52 31/81/52 79/45/52
f 32/82/19 80/47/19 66/56/19
f 23/84/14 87/100/14 86/85/14
f 31/87/15 95/99/15 94/5/15
f 23/89/16 24/96/16 88/90/16
f 31/92/3 32/98/3 96/93/3
f 25/95/4 89/97/4 88/90/4
f 17/95/18 18/96/18 81/90/18
f 17/95/5 82/97/5 96/93/5
f 25/95/6 26/98/6 90/93/6
f 19/89/7 83/91/7 81/90/7
f 27/92/8 91/94/8 90/93/8
f 19/87/9 20/88/9 84/5/9
f 27/84/10 28/86/10 92/85/10
f 21/4/11 85/6/11 84/5/11
f 29/4/12 93/6/12 92/85/12
f 21/4/13 22/86/13 86/85/13
f 33/26/18 34/10/18 1/12/18
o Circle
v 0.808182 0.060818 -0.004778
v -0.041078 0.060818 -0.082258
v -0.068285 0.060818 -0.064079
v -0.086465 0.060818 -0.036871
v -0.092849 0.060818 -0.004778
v -0.086465 0.060818 0.027315
v -0.068285 0.060818 0.054523
v -0.041078 0.060818 0.072702
v -0.008984 0.060818 0.079086
v 0.606134 0.107239 -0.002665
v -0.024383 0.107239 -0.060188
v -0.044178 0.107239 -0.046961
v -0.057697 0.107239 -0.026729
v -0.062444 0.107239 -0.002863
v -0.057697 0.107239 0.021003
v -0.044178 0.107239 0.041235
v -0.023946 0.107239 0.054754
v 0.000081 0.107239 0.059533
v -0.068285 0.099865 -0.064079
v -0.041078 0.099865 -0.082258
v -0.086465 0.099865 -0.036871
v -0.092849 0.099865 -0.004778
v -0.086465 0.099865 0.027315
v -0.068285 0.099865 0.054523
v -0.041078 0.099865 0.072702
v -0.008984 0.099865 0.079086
v 0.808182 0.099865 -0.004778
vn -0.0000 -1.0000 -0.0000
vn -0.0000 1.0000 -0.0000
vn -0.9808 -0.0000 0.1951
vn -0.5556 -0.0000 -0.8315
vn 0.1021 -0.0000 0.9948
vn -0.8315 -0.0000 0.5556
vn -0.8315 -0.0000 -0.5556
vn 0.0909 -0.0000 -0.9959
vn -0.5556 -0.0000 0.8315
vn -0.9808 -0.0000 -0.1951
vn -0.1951 -0.0000 0.9808
vn -0.1433 0.9662 -0.2144
vn -0.2013 0.9703 -0.1345
vn -0.2327 0.9714 -0.0463
vn -0.2383 0.9700 0.0474
vn -0.2159 0.9657 0.1443
vn -0.1605 0.9574 0.2402
vn -0.0648 0.9432 0.3257
vn 0.0378 0.9291 0.3679
vn 0.0308 0.9408 -0.3376
vt -1.229710 -1.125752
vt -0.548906 -1.261172
vt -0.844066 -1.383431
vt -0.953322 -1.208472
vt -0.547755 -1.040480
vt -0.833546 2.095630
vt -0.684326 -0.901753
vt -0.844066 -0.707403
vt -0.844066 -0.901753
vt -1.308671 -0.901753
vt -1.173251 -0.707403
vt -1.173251 -0.901753
vt 3.053785 -0.901753
vt -1.013512 -0.707403
vt -1.013512 -0.901753
vt -0.548906 -0.901753
vt -0.684326 -0.707403
vt -1.003805 -0.901753
vt -1.139225 -0.707403
vt -1.139225 -0.901753
vt 3.053785 -0.707403
vt -1.308671 -0.707403
vt -1.003805 -0.707403
vt -1.054025 -1.141184
vt -1.139225 -1.261172
vt -1.003805 -1.351657
vt -0.834534 -1.232100
vt -0.684326 -1.351657
vt -0.715746 -1.208472
vt -0.615043 -1.141184
vt -0.458421 -1.125752
vt -0.426647 -0.966013
vt -0.523967 -0.920889
vt -0.844066 3.101284
vt -1.119860 -1.042655
vt -0.548906 -0.707403
s 0
f 99/121/53 104/122/53 102/123/53
f 110/124/54 114/125/54 107/126/54
f 103/127/55 119/128/55 102/129/55
f 100/130/56 117/131/56 99/132/56
f 98/133/57 123/134/57 106/135/57
f 104/136/58 120/137/58 103/127/58
f 101/138/59 116/139/59 100/140/59
f 99/132/60 124/141/60 98/133/60
f 105/132/61 121/142/61 104/130/61
f 102/129/62 118/143/62 101/138/62
f 106/135/63 122/131/63 105/132/63
f 109/144/64 117/121/64 116/145/64
f 110/124/65 116/145/65 118/146/65
f 110/124/66 119/123/66 111/147/66
f 111/147/67 120/148/67 112/149/67
f 112/149/68 121/122/68 113/150/68
f 113/150/69 122/151/69 114/125/69
f 114/125/70 123/152/70 115/153/70
f 107/126/71 123/152/71 124/154/71
f 107/126/72 117/121/72 108/155/72
f 101/146/53 100/145/53 99/121/53
f 99/121/53 98/154/53 106/152/53
f 106/152/53 105/151/53 104/122/53
f 104/122/53 103/148/53 102/123/53
f 102/123/53 101/146/53 99/121/53
f 99/121/53 106/152/53 104/122/53
f 108/155/54 109/144/54 110/124/54
f 110/124/54 111/147/54 112/149/54
f 112/149/54 113/150/54 114/125/54
f 114/125/54 115/153/54 107/126/54
f 107/126/54 108/155/54 110/124/54
f 110/124/54 112/149/54 114/125/54
f 103/127/55 120/137/55 119/128/55
f 100/130/56 116/142/56 117/131/56
f 98/133/57 124/141/57 123/134/57
f 104/136/58 121/156/58 120/137/58
f 101/138/59 118/143/59 116/139/59
f 99/132/60 117/131/60 124/141/60
f 105/132/61 122/131/61 121/142/61
f 102/129/62 119/128/62 118/143/62
f 106/135/63 123/134/63 122/131/63
f 109/144/64 108/155/64 117/121/64
f 110/124/65 109/144/65 116/145/65
f 110/124/66 118/146/66 119/123/66
f 111/147/67 119/123/67 120/148/67
f 112/149/68 120/148/68 121/122/68
f 113/150/69 121/122/69 122/151/69
f 114/125/70 122/151/70 123/152/70
f 107/126/71 115/153/71 123/152/71
f 107/126/72 124/154/72 117/121/72
