# Blender 4.0.2
# www.blender.org
o Base
v -1.000000 -0.059062 0.471338
v -1.000000 0.059062 0.362148
v -1.000000 -0.059062 -0.471338
v -1.000000 0.059062 -0.471338
v 1.000000 -0.059062 0.471338
v 1.000000 0.059062 0.362148
v 1.000000 -0.059062 -0.471338
v 1.000000 0.059062 -0.471338
v -0.409674 -0.100472 0.594934
v -0.409674 0.191725 0.471758
v 0.409674 0.191725 0.471758
v 0.409674 -0.100472 0.594934
v -0.293557 -0.059062 0.841796
v -0.293557 0.150315 0.841796
v 0.293557 0.150315 0.841796
v 0.293557 -0.059062 0.841796
v -0.171366 0.092541 0.466827
v -0.242348 0.263907 0.466827
v -0.171366 0.435274 0.466827
v 0.000000 0.506256 0.466827
v 0.171366 0.435274 0.466827
v 0.171366 0.092541 0.466827
v 0.242349 0.263907 0.466827
v -0.171366 0.092541 0.766827
v 0.000000 0.021559 0.766827
v -0.242348 0.263907 0.766827
v -0.171366 0.435274 0.766827
v 0.000000 0.506256 0.766827
v 0.171366 0.435274 0.766827
v 0.242349 0.263907 0.766827
v 0.171366 0.092541 0.766827
v -0.101567 0.228078 0.413148
v -0.071819 0.102038 0.413148
v -0.071819 0.299896 0.413148
v 0.000000 0.329644 0.413148
v 0.071819 0.299896 0.413148
v 0.101567 0.228078 0.413148
v 0.071819 0.102038 0.413148
v -0.058795 0.205112 0.846587
v 0.000000 0.180758 0.846587
v -0.083149 0.263907 0.846587
v -0.058795 0.322702 0.846587
v 0.000000 0.347056 0.846587
v 0.058795 0.322702 0.846587
v 0.083149 0.263907 0.846587
v 0.058795 0.205112 0.846587
v -0.559147 0.116776 0.178426
v -0.559147 0.116776 -0.287615
v 0.559147 0.116776 -0.287615
v 0.559147 0.116776 0.178426
v 0.000000 0.155240 0.362148
vn -1.0000 -0.0000 -0.0000
vn -0.0000 -0.0000 -1.0000
vn 1.0000 -0.0000 -0.0000
vn -0.0000 0.9488 -0.3158
vn -0.0000 -1.0000 -0.0000
vn -0.1298 0.9915 -0.0000
vn 0.9049 -0.0000 0.4256
vn 0.1635 0.3832 0.9091
vn -0.2775 0.6521 0.7055
vn -0.0000 -0.9482 -0.3177
vn -0.0000 -0.0000 1.0000
vn -0.0000 -0.9862 0.1654
vn -0.9417 0.1307 0.3101
vn -0.0000 0.9938 0.1112
vn -0.1824 -0.4404 0.8791
vn 0.9239 0.3827 -0.0000
vn -0.3827 0.9239 -0.0000
vn -0.9239 -0.3827 -0.0000
vn 0.9239 -0.3827 -0.0000
vn 0.3827 0.9239 -0.0000
vn -0.9239 0.3827 -0.0000
vn 0.3231 0.1339 -0.9368
vn -0.1196 0.2887 -0.9499
vn -0.3870 -0.1603 -0.9080
vn 0.3870 -0.1603 -0.9080
vn 0.1196 0.2887 -0.9499
vn -0.3231 0.1339 -0.9368
vn 0.1824 -0.4404 0.8791
vn 0.4404 0.1824 0.8791
vn -0.1824 0.4404 0.8791
vn -0.4404 -0.1824 0.8791
vn 0.4404 -0.1824 0.8791
vn 0.1824 0.4404 0.8791
vn -0.4404 0.1824 0.8791
vn -0.0000 1.0000 -0.0000
vn -0.0000 0.9788 -0.2049
vn -0.0000 0.9540 -0.2997
vn 0.1298 0.9915 -0.0000
vn 0.0788 0.8196 -0.5675
vn -0.0788 0.8196 -0.5675
vn 0.9417 0.1307 0.3101
vn 0.2775 0.6521 0.7055
vn -0.1635 0.3832 0.9091
vn -0.9049 -0.0000 0.4256
vn -0.4637 -0.1094 -0.8792
vn 0.4637 -0.1094 -0.8792
vn -0.0954 0.9920 0.0827
vn 0.0954 0.9920 0.0827
vt 0.625000 0.000000
vt 0.375000 0.250000
vt 0.375000 0.000000
vt 0.625000 0.250000
vt 0.375000 0.500000
vt 0.625000 0.750000
vt 0.375000 0.750000
vt 0.750000 0.750000
vt 0.875000 0.750000
vt 0.125000 0.750000
vt 0.125000 0.500000
vt 0.375000 1.000000
vt 0.000000 0.000000
vt 0.875000 0.500000
vt 0.625000 0.500000
vt 0.625000 1.000000
s 0
f 2/1/1 3/2/1 1/3/1
f 4/4/2 7/5/2 3/2/2
f 7/5/3 6/6/3 5/7/3
f 51/8/4 10/9/4 11/6/4
f 7/5/5 1/10/5 3/11/5
f 2/1/6 48/4/6 4/4/6
f 12/7/7 15/6/7 16/7/7
f 5/7/8 11/6/8 12/7/8
f 1/3/9 10/1/9 2/1/9
f 5/7/10 9/10/10 1/10/10
f 15/6/11 13/12/11 16/7/11
f 12/7/12 13/10/12 9/10/12
f 9/3/13 14/1/13 10/1/13
f 10/9/14 15/6/14 11/6/14
f 40/13/15 24/13/15 25/13/15
f 29/13/16 23/13/16 21/13/16
f 27/13/17 20/13/17 19/13/17
f 24/13/18 18/13/18 17/13/18
f 30/13/19 22/13/19 23/13/19
f 28/13/20 21/13/20 20/13/20
f 26/13/21 19/13/21 18/13/21
f 23/13/22 36/13/22 21/13/22
f 35/13/2 37/13/2 33/13/2
f 35/13/23 19/13/23 20/13/23
f 32/13/24 17/13/24 18/13/24
f 22/13/25 37/13/25 23/13/25
f 21/13/26 35/13/26 20/13/26
f 34/13/27 18/13/27 19/13/27
f 45/13/11 43/13/11 41/13/11
f 46/13/28 25/13/28 31/13/28
f 44/13/29 30/13/29 29/13/29
f 27/13/30 43/13/30 28/13/30
f 39/13/31 26/13/31 24/13/31
f 45/13/32 31/13/32 30/13/32
f 43/13/33 29/13/33 28/13/33
f 41/13/34 27/13/34 26/13/34
f 48/14/35 50/6/35 49/15/35
f 51/8/36 50/6/36 47/9/36
f 4/4/37 49/15/37 8/15/37
f 8/15/38 50/6/38 6/6/38
f 2/1/1 4/4/1 3/2/1
f 4/4/2 8/15/2 7/5/2
f 7/5/3 8/15/3 6/6/3
f 11/6/39 6/6/39 51/8/39
f 51/8/40 2/9/40 10/9/40
f 7/5/5 5/7/5 1/10/5
f 2/1/6 47/1/6 48/4/6
f 12/7/41 11/6/41 15/6/41
f 5/7/42 6/6/42 11/6/42
f 1/3/43 9/3/43 10/1/43
f 5/7/10 12/7/10 9/10/10
f 15/6/11 14/16/11 13/12/11
f 12/7/12 16/7/12 13/10/12
f 9/3/44 13/3/44 14/1/44
f 10/9/14 14/9/14 15/6/14
f 40/13/15 39/13/15 24/13/15
f 29/13/16 30/13/16 23/13/16
f 27/13/17 28/13/17 20/13/17
f 24/13/18 26/13/18 18/13/18
f 30/13/19 31/13/19 22/13/19
f 28/13/20 29/13/20 21/13/20
f 26/13/21 27/13/21 19/13/21
f 23/13/22 37/13/22 36/13/22
f 32/13/2 34/13/2 35/13/2
f 35/13/2 36/13/2 37/13/2
f 37/13/2 38/13/2 33/13/2
f 33/13/2 32/13/2 35/13/2
f 35/13/23 34/13/23 19/13/23
f 32/13/45 33/13/45 17/13/45
f 22/13/46 38/13/46 37/13/46
f 21/13/26 36/13/26 35/13/26
f 34/13/27 32/13/27 18/13/27
f 41/13/11 39/13/11 40/13/11
f 40/13/11 46/13/11 45/13/11
f 45/13/11 44/13/11 43/13/11
f 43/13/11 42/13/11 41/13/11
f 41/13/11 40/13/11 45/13/11
f 46/13/28 40/13/28 25/13/28
f 44/13/29 45/13/29 30/13/29
f 27/13/30 42/13/30 43/13/30
f 39/13/31 41/13/31 26/13/31
f 45/13/32 46/13/32 31/13/32
f 43/13/33 44/13/33 29/13/33
f 41/13/34 42/13/34 27/13/34
f 48/14/35 47/9/35 50/6/35
f 47/9/47 2/9/47 51/8/47
f 51/8/48 6/6/48 50/6/48
f 4/4/37 48/4/37 49/15/37
f 8/15/38 49/15/38 50/6/38
o Handle
v 0.004548 0.122972 0.425863
v 0.018388 1.024246 -0.469571
v 0.143095 0.122972 0.483251
v 0.078015 1.025082 -0.492897
v 0.200483 0.122972 0.621798
v 0.103672 1.027184 -0.551526
v 0.143095 0.122972 0.760345
v 0.080331 1.029321 -0.611114
v 0.004548 0.122972 0.817733
v 0.021664 1.030240 -0.636755
v -0.133999 0.122972 0.760345
v -0.037962 1.029404 -0.613429
v -0.191387 0.122972 0.621798
v -0.063620 1.027302 -0.554800
v -0.133999 0.122972 0.483251
v -0.040279 1.025165 -0.495212
v 0.015987 1.247552 0.392069
v 0.075518 1.270536 0.397345
v 0.100946 1.328111 0.409125
v 0.077375 1.386548 0.420508
v 0.018612 1.411617 0.424828
v -0.040919 1.388632 0.419552
v -0.066347 1.331058 0.407773
v -0.042776 1.272620 0.396389
v 0.017920 1.240518 -0.174122
v 0.077502 1.263934 -0.175410
v 0.103051 1.322544 -0.178912
v 0.079600 1.382015 -0.182576
v 0.020885 1.407508 -0.184256
v -0.038697 1.384092 -0.182967
v -0.064246 1.325482 -0.179465
v -0.040795 1.266012 -0.175801
v 0.068601 0.829609 0.548317
v 0.093089 0.829777 0.607481
v 0.068574 0.830676 0.666628
v 0.009417 0.831780 0.691110
v -0.049729 0.832441 0.666585
v -0.074217 0.832273 0.607421
v -0.049702 0.831374 0.548274
v 0.009455 0.830270 0.523792
v 0.013733 1.107121 0.510717
v 0.072935 1.110058 0.534938
v 0.097559 1.118940 0.593375
v -0.045122 1.130358 0.651761
v -0.069746 1.121476 0.593324
v -0.045367 1.111851 0.534902
v 0.076766 1.275460 0.115233
v 0.102307 1.334176 0.114846
v 0.078847 1.393754 0.114325
v 0.020129 1.419293 0.113973
v -0.039450 1.395833 0.113998
v -0.064991 1.337116 0.114384
v -0.041531 1.277538 0.114906
v 0.017186 1.251999 0.115257
v 0.018319 1.221619 -0.429715
v 0.077921 1.242180 -0.440895
v 0.103516 1.293624 -0.469153
v 0.080112 1.345814 -0.497937
v 0.021419 1.368180 -0.510384
v -0.038183 1.347619 -0.499204
v -0.063779 1.296175 -0.470945
v -0.040375 1.243984 -0.442162
v 0.018367 1.170434 -0.453562
v 0.077994 1.171270 -0.476888
v 0.103651 1.173373 -0.535518
v 0.080310 1.175509 -0.595106
v 0.021643 1.176429 -0.620747
v -0.037983 1.175592 -0.597421
v -0.063641 1.173490 -0.538792
v -0.040300 1.171353 -0.479203
v 0.077740 1.258131 -0.323213
v 0.103287 1.316782 -0.325952
v 0.079833 1.376296 -0.328798
v 0.021118 1.401811 -0.330084
v -0.038464 1.378380 -0.329057
v -0.064011 1.319728 -0.326318
v -0.040557 1.260214 -0.323472
v 0.018158 1.234699 -0.322186
v 0.073180 1.128565 0.651797
v 0.014080 1.133294 0.675981
v 0.070786 0.972704 0.546897
v 0.095301 0.974605 0.606020
v 0.070814 0.977278 0.665124
v 0.011669 0.979156 0.689588
v -0.047488 0.979140 0.665080
v -0.072003 0.977239 0.605957
v -0.047516 0.974566 0.546853
v 0.011629 0.972688 0.522389
v 0.015023 1.201183 0.469431
v 0.074398 1.217150 0.487311
v 0.099439 1.257312 0.530441
v 0.075476 1.298141 0.573555
v 0.016546 1.315721 0.591398
v -0.042829 1.299754 0.573519
v -0.067870 1.259592 0.530389
v -0.043907 1.218763 0.487275
v 0.018378 1.097340 -0.461567
v 0.078004 1.098176 -0.484893
v 0.103662 1.100279 -0.543522
v 0.080321 1.102415 -0.603110
v 0.021654 1.103335 -0.628751
v -0.037973 1.102498 -0.605425
v -0.063630 1.100396 -0.546796
v -0.040289 1.098259 -0.487208
v 0.017547 1.249243 -0.029507
v 0.077128 1.272689 -0.030177
v 0.102673 1.331372 -0.032157
v 0.079217 1.390915 -0.034288
v 0.020501 1.416440 -0.035321
v -0.039080 1.392993 -0.034652
v -0.064625 1.334310 -0.032672
v -0.041169 1.274767 -0.030541
vn 0.3637 -0.1013 0.9260
vn 0.9158 -0.0436 0.3992
vn 0.9309 0.0399 -0.3632
vn 0.3998 0.0998 -0.9112
vn -0.3637 0.1013 -0.9260
vn -0.9158 0.0436 -0.3992
vn -0.0000 -0.9994 -0.0358
vn -0.9309 -0.0399 0.3632
vn -0.3998 -0.0998 0.9112
vn -0.3809 -0.7910 -0.4788
vn -0.9231 -0.3258 -0.2045
vn -0.9129 0.3576 0.1971
vn -0.3576 0.8107 0.4635
vn 0.3796 0.7991 0.4663
vn 0.9228 0.3276 0.2027
vn 0.9133 -0.3552 -0.1994
vn 0.3593 -0.8024 -0.4765
vn -0.3989 -0.9154 0.0541
vn -0.9305 -0.3658 0.0196
vn -0.9169 0.3982 -0.0263
vn -0.3662 0.9288 -0.0566
vn 0.3989 0.9154 -0.0539
vn 0.9305 0.3658 -0.0196
vn 0.9169 -0.3982 0.0263
vn 0.3662 -0.9288 0.0569
vn 0.3797 0.1244 -0.9167
vn 0.9159 0.1315 -0.3794
vn 0.9139 0.1464 0.3786
vn 0.3777 0.1603 0.9119
vn -0.3774 0.1654 0.9112
vn -0.9122 0.1583 0.3779
vn -0.9143 0.1434 -0.3787
vn -0.3795 0.1292 -0.9161
vn 0.3613 -0.9323 -0.0147
vn 0.9151 -0.4033 -0.0041
vn 0.9282 0.3718 0.0132
vn 0.3938 0.9189 0.0246
vn -0.3617 0.9320 0.0212
vn -0.9151 0.4031 0.0051
vn -0.9281 -0.3720 -0.0120
vn -0.3934 -0.9192 -0.0178
vn -0.3981 -0.9107 0.1102
vn -0.9301 -0.3642 0.0484
vn -0.9159 0.3959 -0.0659
vn -0.3634 0.9167 -0.1663
vn 0.3963 0.9037 -0.1622
vn 0.9298 0.3637 -0.0573
vn 0.9163 -0.3966 0.0552
vn 0.3653 -0.9240 0.1129
vn -0.3405 -0.4275 0.8375
vn -0.9073 -0.2042 0.3675
vn -0.8901 0.2252 -0.3963
vn -0.3173 0.4728 -0.8221
vn 0.3503 0.4675 -0.8116
vn 0.9087 0.2077 -0.3622
vn 0.8884 -0.2210 0.4023
vn 0.3077 -0.4304 0.8486
vn 0.3662 -0.9298 0.0371
vn 0.9169 -0.3987 0.0171
vn 0.9305 0.3661 -0.0129
vn 0.3989 0.9163 -0.0352
vn -0.3662 0.9298 -0.0369
vn -0.9169 0.3987 -0.0171
vn -0.9305 -0.3661 0.0129
vn -0.3989 -0.9163 0.0354
vn -0.3832 -0.0739 -0.9207
vn -0.9240 -0.0188 -0.3820
vn -0.9232 0.0478 0.3813
vn -0.3813 0.0870 0.9203
vn 0.3832 0.0751 0.9206
vn 0.9240 0.0190 0.3820
vn 0.9232 -0.0476 -0.3813
vn 0.3813 -0.0859 -0.9204
vn 0.3828 -0.0149 -0.9237
vn 0.9239 -0.0179 -0.3823
vn 0.9237 -0.0102 0.3830
vn 0.3824 0.0036 0.9240
vn -0.3828 0.0153 0.9237
vn -0.9239 0.0180 0.3823
vn -0.9237 0.0103 -0.3830
vn -0.3824 -0.0033 -0.9240
vn 0.3665 -0.3782 -0.8501
vn 0.9168 -0.1727 -0.3601
vn 0.9209 0.1510 0.3594
vn 0.3758 0.3840 0.8434
vn -0.3646 0.3945 0.8434
vn -0.9164 0.1762 0.3594
vn -0.9212 -0.1478 -0.3600
vn -0.3772 -0.3679 -0.8499
vn 0.3637 -0.1014 0.9260
vn 0.3663 -0.9303 0.0186
vn 0.9170 -0.3988 0.0099
vn 0.9305 0.3663 -0.0047
vn 0.3989 0.9169 -0.0165
vn -0.3663 0.9303 -0.0187
vn -0.9170 0.3988 -0.0099
vn -0.9305 -0.3663 0.0047
vn -0.3989 -0.9169 0.0165
vn -0.3744 -0.7957 -0.4762
vn -0.9209 -0.3316 -0.2047
vn -0.9110 0.3619 0.1976
vn -0.3546 0.8122 0.4632
vn 0.3760 0.8010 0.4658
vn 0.9211 0.3320 0.2032
vn 0.9108 -0.3614 -0.1996
vn 0.3534 -0.8064 -0.4741
vn -0.3990 -0.9153 0.0542
vn -0.9305 -0.3657 0.0196
vn -0.9169 0.3981 -0.0263
vn -0.3662 0.9288 -0.0567
vn 0.3990 0.9154 -0.0539
vn 0.9305 0.3657 -0.0196
vn 0.9169 -0.3981 0.0264
vn 0.3662 -0.9288 0.0570
vn 0.3812 0.1242 -0.9161
vn 0.9158 0.1315 -0.3794
vn 0.9146 0.1466 0.3769
vn 0.3800 0.1606 0.9109
vn -0.3762 0.1652 0.9117
vn -0.9125 0.1584 0.3772
vn -0.9134 0.1436 -0.3808
vn -0.3771 0.1296 -0.9171
vn 0.3663 -0.9304 -0.0134
vn 0.9170 -0.3989 -0.0029
vn 0.9304 0.3665 0.0119
vn 0.3986 0.9168 0.0235
vn -0.3663 0.9303 0.0202
vn -0.9170 0.3989 0.0040
vn -0.9304 -0.3664 -0.0105
vn -0.3987 -0.9169 -0.0165
vn -0.3763 -0.9180 0.1250
vn -0.9228 -0.3805 0.0605
vn -0.9087 0.4105 -0.0757
vn -0.3500 0.9208 -0.1723
vn 0.3820 0.9086 -0.1688
vn 0.9236 0.3775 -0.0665
vn 0.9077 -0.4140 0.0684
vn 0.3446 -0.9302 0.1266
vn -0.3736 -0.3920 0.8407
vn -0.9179 -0.1810 0.3531
vn -0.8980 0.2121 -0.3854
vn -0.3276 0.4682 -0.8207
vn 0.3612 0.4624 -0.8098
vn 0.9156 0.1951 -0.3516
vn 0.9010 -0.1956 0.3873
vn 0.3392 -0.3970 0.8528
vn 0.3663 -0.9298 0.0371
vn 0.9170 -0.3986 0.0171
vn 0.9305 0.3661 -0.0128
vn -0.3663 0.9298 -0.0369
vn -0.9170 0.3986 -0.0171
vn -0.3989 -0.9163 0.0353
vn -0.3828 -0.0742 -0.9209
vn -0.9238 -0.0190 -0.3824
vn -0.9231 0.0481 0.3816
vn -0.3809 0.0872 0.9205
vn 0.3828 0.0753 0.9208
vn 0.9238 0.0192 0.3823
vn 0.9231 -0.0479 -0.3817
vn 0.3809 -0.0861 -0.9206
vn 0.3827 -0.0150 -0.9237
vn 0.9238 -0.0180 -0.3825
vn 0.9236 -0.0102 0.3831
vn 0.3823 0.0037 0.9240
vn -0.3827 0.0154 0.9237
vn -0.9238 0.0180 0.3825
vn -0.9236 0.0102 -0.3831
vn -0.3823 -0.0033 -0.9240
vn 0.3593 -0.3833 -0.8509
vn 0.9139 -0.1783 -0.3646
vn 0.9186 0.1553 0.3635
vn 0.3710 0.3865 0.8444
vn -0.3608 0.3963 0.8442
vn -0.9142 0.1801 0.3631
vn -0.9183 -0.1538 -0.3648
vn -0.3692 -0.3740 -0.8508
vn -0.3637 0.1014 -0.9260
vn 0.9305 0.3664 -0.0047
vn -0.9305 -0.3664 0.0047
vt 1.000000 1.000000
vt 0.875000 0.984375
vt 1.000000 0.984375
vt 0.875000 1.000000
vt 0.750000 0.984375
vt 0.750000 1.000000
vt 0.625000 0.984375
vt 0.625000 1.000000
vt 0.500000 0.984375
vt 0.375000 1.000000
vt 0.375000 0.984375
vt 0.250000 1.000000
vt 0.250000 0.984375
vt 0.010000 0.250000
vt 0.250000 0.010000
vt 0.490000 0.250000
vt 0.125000 1.000000
vt 0.125000 0.984375
vt 0.000000 1.000000
vt 0.000000 0.984375
vt 0.125000 0.719516
vt 0.000000 0.750000
vt 0.000000 0.719516
vt 0.250000 0.719516
vt 0.125000 0.750000
vt 0.375000 0.719516
vt 0.250000 0.750000
vt 0.500000 0.719516
vt 0.375000 0.750000
vt 0.625000 0.750000
vt 0.625000 0.719516
vt 0.750000 0.750000
vt 0.750000 0.719516
vt 0.875000 0.750000
vt 0.875000 0.719516
vt 1.000000 0.750000
vt 1.000000 0.719516
vt 0.125000 0.875000
vt 0.000000 0.843750
vt 0.125000 0.843750
vt 0.250000 0.875000
vt 0.250000 0.843750
vt 0.375000 0.875000
vt 0.375000 0.843750
vt 0.500000 0.875000
vt 0.500000 0.843750
vt 0.625000 0.843750
vt 0.750000 0.843750
vt 0.625000 0.875000
vt 0.875000 0.843750
vt 0.750000 0.875000
vt 1.000000 0.843750
vt 0.875000 0.875000
vt 1.000000 0.500000
vt 0.875000 0.625000
vt 0.875000 0.500000
vt 0.750000 0.625000
vt 0.750000 0.500000
vt 0.625000 0.625000
vt 0.625000 0.500000
vt 0.500000 0.625000
vt 0.500000 0.500000
vt 0.375000 0.500000
vt 0.375000 0.625000
vt 0.250000 0.500000
vt 0.250000 0.625000
vt 0.125000 0.500000
vt 0.125000 0.625000
vt 0.000000 0.500000
vt 0.875000 0.812500
vt 0.750000 0.812500
vt 0.625000 0.812500
vt 0.500000 0.812500
vt 0.500000 0.750000
vt 0.375000 0.812500
vt 0.250000 0.812500
vt 0.125000 0.812500
vt 0.125000 0.906250
vt 0.000000 0.937500
vt 0.000000 0.906250
vt 0.250000 0.906250
vt 0.125000 0.937500
vt 0.375000 0.906250
vt 0.250000 0.937500
vt 0.500000 0.906250
vt 0.375000 0.937500
vt 0.625000 0.937500
vt 0.625000 0.906250
vt 0.750000 0.937500
vt 0.750000 0.906250
vt 0.875000 0.937500
vt 0.875000 0.906250
vt 1.000000 0.937500
vt 1.000000 0.906250
vt 0.125000 0.968750
vt 0.250000 0.968750
vt 0.375000 0.968750
vt 0.500000 0.968750
vt 0.500000 0.937500
vt 0.625000 0.968750
vt 0.750000 0.968750
vt 0.875000 0.968750
vt 1.000000 0.875000
vt 0.000000 0.875000
vt 0.125000 0.655797
vt 0.000000 0.686594
vt 0.000000 0.655797
vt 0.250000 0.655797
vt 0.125000 0.686594
vt 0.375000 0.655797
vt 0.250000 0.686594
vt 0.500000 0.655797
vt 0.375000 0.686594
vt 0.625000 0.686594
vt 0.625000 0.655797
vt 0.750000 0.686594
vt 0.750000 0.655797
vt 0.875000 0.686594
vt 0.875000 0.655797
vt 1.000000 0.686594
vt 1.000000 0.655797
vt 1.000000 0.625000
vt 0.000000 0.625000
vt 0.500000 0.686594
vt 0.000000 0.968750
vt 1.000000 0.968750
vt 1.000000 0.812500
vt 0.000000 0.812500
vt 0.500000 1.000000
vt 0.419706 0.419706
vt 0.250000 0.490000
vt 0.080294 0.419706
vt 0.080294 0.080294
vt 0.419706 0.080294
s 0
f 53/17/49 149/18/49 148/19/49
f 55/20/50 150/21/50 149/18/50
f 57/22/51 151/23/51 150/21/51
f 59/24/52 152/25/52 151/23/52
f 152/25/53 63/26/53 153/27/53
f 153/27/54 65/28/54 154/29/54
f 65/30/55 61/31/55 57/32/55
f 154/29/56 67/33/56 155/34/56
f 155/34/57 53/35/57 148/36/57
f 147/37/58 68/38/58 140/39/58
f 146/40/59 75/41/59 147/37/59
f 145/42/60 74/43/60 146/40/60
f 144/44/61 73/45/61 145/42/61
f 71/46/62 144/44/62 143/47/62
f 70/48/63 143/47/63 142/49/63
f 69/50/64 142/49/64 141/51/64
f 68/52/65 141/51/65 140/53/65
f 83/54/66 156/55/66 163/56/66
f 82/57/67 163/56/67 162/58/67
f 81/59/68 162/58/68 161/60/68
f 80/61/69 161/60/69 160/62/69
f 159/63/70 80/61/70 160/62/70
f 158/64/71 79/65/71 159/63/71
f 157/66/72 78/67/72 158/64/72
f 156/68/73 77/69/73 157/66/73
f 52/70/74 84/71/74 54/72/74
f 54/72/75 85/73/75 56/74/75
f 56/74/76 86/75/76 58/76/76
f 58/76/77 87/77/77 60/78/77
f 87/77/78 62/79/78 60/78/78
f 88/80/79 64/81/79 62/79/79
f 89/82/80 66/83/80 64/81/80
f 90/84/81 52/85/81 66/83/81
f 68/52/82 98/86/82 69/50/82
f 69/50/83 99/87/83 70/48/83
f 70/48/84 100/88/84 71/46/84
f 71/46/85 101/89/85 72/90/85
f 101/89/86 73/45/86 72/90/86
f 102/91/87 74/43/87 73/45/87
f 103/92/88 75/41/88 74/43/88
f 104/93/89 68/38/89 75/41/89
f 128/94/90 106/95/90 129/96/90
f 127/97/91 113/98/91 128/94/91
f 126/99/92 112/100/92 127/97/92
f 125/101/93 111/102/93 126/99/93
f 109/103/94 125/101/94 124/104/94
f 108/105/95 124/104/95 123/106/95
f 107/107/96 123/106/96 122/108/96
f 106/109/97 122/108/97 129/110/97
f 121/111/98 106/95/98 113/98/98
f 120/112/99 113/98/99 112/100/99
f 119/113/100 112/100/100 111/102/100
f 118/114/101 111/102/101 110/115/101
f 109/103/102 118/114/102 110/115/102
f 108/105/103 117/116/103 109/103/103
f 107/107/104 116/117/104 108/105/104
f 106/109/105 115/118/105 107/107/105
f 129/110/106 77/69/106 76/119/106
f 122/108/107 78/67/107 77/69/107
f 123/106/108 79/65/108 78/67/108
f 124/104/109 80/61/109 79/65/109
f 80/61/110 126/99/110 81/59/110
f 81/59/111 127/97/111 82/57/111
f 82/57/112 128/94/112 83/54/112
f 83/54/113 129/96/113 76/120/113
f 138/121/114 92/122/114 139/123/114
f 137/124/115 97/125/115 138/121/115
f 136/126/116 96/127/116 137/124/116
f 135/128/117 95/129/117 136/126/117
f 130/130/118 135/128/118 134/131/118
f 94/132/119 134/131/119 133/133/119
f 93/134/120 133/133/120 132/135/120
f 92/136/121 132/135/121 139/137/121
f 139/137/122 84/71/122 91/138/122
f 132/135/123 85/73/123 84/71/123
f 133/133/124 86/75/124 85/73/124
f 134/131/125 87/77/125 86/75/125
f 87/77/126 136/126/126 88/80/126
f 88/80/127 137/124/127 89/82/127
f 89/82/128 138/121/128 90/84/128
f 90/84/129 139/123/129 91/139/129
f 140/53/130 93/134/130 92/136/130
f 141/51/131 94/132/131 93/134/131
f 142/49/132 130/130/132 94/132/132
f 143/47/133 131/140/133 130/130/133
f 131/140/134 145/42/134 95/129/134
f 95/129/135 146/40/135 96/127/135
f 96/127/136 147/37/136 97/125/136
f 97/125/137 140/39/137 92/122/137
f 121/111/57 148/36/57 114/141/57
f 120/112/56 155/34/56 121/111/56
f 119/113/54 154/29/54 120/112/54
f 118/114/53 153/27/53 119/113/53
f 151/23/52 118/114/52 117/116/52
f 150/21/51 117/116/51 116/117/51
f 149/18/50 116/117/50 115/118/50
f 148/19/138 115/118/138 114/142/138
f 156/68/139 98/86/139 105/143/139
f 157/66/140 99/87/140 98/86/140
f 158/64/141 100/88/141 99/87/141
f 159/63/142 101/89/142 100/88/142
f 101/89/143 161/60/143 102/91/143
f 102/91/144 162/58/144 103/92/144
f 103/92/145 163/56/145 104/93/145
f 104/93/146 156/55/146 105/144/146
f 53/17/49 55/20/49 149/18/49
f 55/20/50 57/22/50 150/21/50
f 57/22/51 59/24/51 151/23/51
f 59/24/52 61/145/52 152/25/52
f 152/25/53 61/145/53 63/26/53
f 153/27/54 63/26/54 65/28/54
f 57/32/55 55/146/55 53/147/55
f 53/147/55 67/148/55 65/30/55
f 65/30/55 63/149/55 61/31/55
f 61/31/55 59/150/55 57/32/55
f 57/32/55 53/147/55 65/30/55
f 154/29/56 65/28/56 67/33/56
f 155/34/57 67/33/57 53/35/57
f 147/37/147 75/41/147 68/38/147
f 146/40/148 74/43/148 75/41/148
f 145/42/149 73/45/149 74/43/149
f 144/44/150 72/90/150 73/45/150
f 71/46/151 72/90/151 144/44/151
f 70/48/152 71/46/152 143/47/152
f 69/50/153 70/48/153 142/49/153
f 68/52/154 69/50/154 141/51/154
f 83/54/155 76/120/155 156/55/155
f 82/57/156 83/54/156 163/56/156
f 81/59/157 82/57/157 162/58/157
f 80/61/158 81/59/158 161/60/158
f 159/63/159 79/65/159 80/61/159
f 158/64/160 78/67/160 79/65/160
f 157/66/161 77/69/161 78/67/161
f 156/68/162 76/119/162 77/69/162
f 52/70/163 91/138/163 84/71/163
f 54/72/164 84/71/164 85/73/164
f 56/74/165 85/73/165 86/75/165
f 58/76/166 86/75/166 87/77/166
f 87/77/167 88/80/167 62/79/167
f 88/80/168 89/82/168 64/81/168
f 89/82/169 90/84/169 66/83/169
f 90/84/170 91/139/170 52/85/170
f 68/52/171 105/143/171 98/86/171
f 69/50/172 98/86/172 99/87/172
f 70/48/173 99/87/173 100/88/173
f 71/46/174 100/88/174 101/89/174
f 101/89/175 102/91/175 73/45/175
f 102/91/176 103/92/176 74/43/176
f 103/92/177 104/93/177 75/41/177
f 104/93/178 105/144/178 68/38/178
f 128/94/179 113/98/179 106/95/179
f 127/97/180 112/100/180 113/98/180
f 126/99/181 111/102/181 112/100/181
f 125/101/182 110/115/182 111/102/182
f 109/103/183 110/115/183 125/101/183
f 108/105/184 109/103/184 124/104/184
f 107/107/185 108/105/185 123/106/185
f 106/109/186 107/107/186 122/108/186
f 121/111/187 114/141/187 106/95/187
f 120/112/188 121/111/188 113/98/188
f 119/113/189 120/112/189 112/100/189
f 118/114/190 119/113/190 111/102/190
f 109/103/191 117/116/191 118/114/191
f 108/105/192 116/117/192 117/116/192
f 107/107/193 115/118/193 116/117/193
f 106/109/194 114/142/194 115/118/194
f 129/110/195 122/108/195 77/69/195
f 122/108/196 123/106/196 78/67/196
f 123/106/197 124/104/197 79/65/197
f 124/104/109 125/101/109 80/61/109
f 80/61/198 125/101/198 126/99/198
f 81/59/199 126/99/199 127/97/199
f 82/57/112 127/97/112 128/94/112
f 83/54/200 128/94/200 129/96/200
f 138/121/201 97/125/201 92/122/201
f 137/124/202 96/127/202 97/125/202
f 136/126/203 95/129/203 96/127/203
f 135/128/204 131/140/204 95/129/204
f 130/130/205 131/140/205 135/128/205
f 94/132/206 130/130/206 134/131/206
f 93/134/207 94/132/207 133/133/207
f 92/136/208 93/134/208 132/135/208
f 139/137/209 132/135/209 84/71/209
f 132/135/210 133/133/210 85/73/210
f 133/133/211 134/131/211 86/75/211
f 134/131/212 135/128/212 87/77/212
f 87/77/213 135/128/213 136/126/213
f 88/80/214 136/126/214 137/124/214
f 89/82/215 137/124/215 138/121/215
f 90/84/216 138/121/216 139/123/216
f 140/53/217 141/51/217 93/134/217
f 141/51/218 142/49/218 94/132/218
f 142/49/219 143/47/219 130/130/219
f 143/47/220 144/44/220 131/140/220
f 131/140/221 144/44/221 145/42/221
f 95/129/222 145/42/222 146/40/222
f 96/127/223 146/40/223 147/37/223
f 97/125/224 147/37/224 140/39/224
f 121/111/57 155/34/57 148/36/57
f 120/112/56 154/29/56 155/34/56
f 119/113/54 153/27/54 154/29/54
f 118/114/225 152/25/225 153/27/225
f 151/23/52 152/25/52 118/114/52
f 150/21/51 151/23/51 117/116/51
f 149/18/50 150/21/50 116/117/50
f 148/19/138 149/18/138 115/118/138
f 156/68/139 157/66/139 98/86/139
f 157/66/140 158/64/140 99/87/140
f 158/64/226 159/63/226 100/88/226
f 159/63/142 160/62/142 101/89/142
f 101/89/143 160/62/143 161/60/143
f 102/91/144 161/60/144 162/58/144
f 103/92/227 162/58/227 163/56/227
f 104/93/146 163/56/146 156/55/146
