# Blender 4.0.2
# www.blender.org
o Base
v -1.000000 -0.059062 0.471338
v -1.000000 0.059062 0.362148
v -1.000000 -0.059062 -0.471338
v -1.000000 0.059062 -0.471338
v 1.000000 -0.059062 0.471338
v 1.000000 0.059062 0.362148
v 1.000000 -0.059062 -0.471338
v 1.000000 0.059062 -0.471338
v -0.409674 -0.100472 0.594934
v -0.409674 0.191725 0.471758
v 0.409674 0.191725 0.471758
v 0.409674 -0.100472 0.594934
v -0.293557 -0.059062 0.841796
v -0.293557 0.150315 0.841796
v 0.293557 0.150315 0.841796
v 0.293557 -0.059062 0.841796
v -0.171366 0.092541 0.466827
v -0.242348 0.263907 0.466827
v -0.171366 0.435274 0.466827
v 0.000000 0.506256 0.466827
v 0.171366 0.435274 0.466827
v 0.171366 0.092541 0.466827
v 0.242349 0.263907 0.466827
v -0.171366 0.092541 0.766827
v 0.000000 0.021559 0.766827
v -0.242348 0.263907 0.766827
v -0.171366 0.435274 0.766827
v 0.000000 0.506256 0.766827
v 0.171366 0.435274 0.766827
v 0.242349 0.263907 0.766827
v 0.171366 0.092541 0.766827
v -0.101567 0.228078 0.413148
v -0.071819 0.102038 0.413148
v -0.071819 0.299896 0.413148
v 0.000000 0.329644 0.413148
v 0.071819 0.299896 0.413148
v 0.101567 0.228078 0.413148
v 0.071819 0.102038 0.413148
v -0.058795 0.205112 0.846587
v 0.000000 0.180758 0.846587
v -0.083149 0.263907 0.846587
v -0.058795 0.322702 0.846587
v 0.000000 0.347056 0.846587
v 0.058795 0.322702 0.846587
v 0.083149 0.263907 0.846587
v 0.058795 0.205112 0.846587
v -0.559147 0.116776 0.178426
v -0.559147 0.116776 -0.287615
v 0.559147 0.116776 -0.287615
v 0.559147 0.116776 0.178426
v 0.000000 0.155240 0.362148
vn -1.0000 -0.0000 -0.0000
vn -0.0000 -0.0000 -1.0000
vn 1.0000 -0.0000 -0.0000
vn -0.0000 0.9488 -0.3158
vn -0.0000 -1.0000 -0.0000
vn -0.1298 0.9915 -0.0000
vn 0.9049 -0.0000 0.4256
vn 0.1635 0.3832 0.9091
vn -0.2775 0.6521 0.7055
vn -0.0000 -0.9482 -0.3177
vn -0.0000 -0.0000 1.0000
vn -0.0000 -0.9862 0.1654
vn -0.9417 0.1307 0.3101
vn -0.0000 0.9938 0.1112
vn -0.1824 -0.4404 0.8791
vn 0.9239 0.3827 -0.0000
vn -0.3827 0.9239 -0.0000
vn -0.9239 -0.3827 -0.0000
vn 0.9239 -0.3827 -0.0000
vn 0.3827 0.9239 -0.0000
vn -0.9239 0.3827 -0.0000
vn 0.3231 0.1339 -0.9368
vn -0.1196 0.2887 -0.9499
vn -0.3870 -0.1603 -0.9080
vn 0.3870 -0.1603 -0.9080
vn 0.1196 0.2887 -0.9499
vn -0.3231 0.1339 -0.9368
vn 0.1824 -0.4404 0.8791
vn 0.4404 0.1824 0.8791
vn -0.1824 0.4404 0.8791
vn -0.4404 -0.1824 0.8791
vn 0.4404 -0.1824 0.8791
vn 0.1824 0.4404 0.8791
vn -0.4404 0.1824 0.8791
vn -0.0000 1.0000 -0.0000
vn -0.0000 0.9788 -0.2049
vn -0.0000 0.9540 -0.2997
vn 0.1298 0.9915 -0.0000
vn 0.0788 0.8196 -0.5675
vn -0.0788 0.8196 -0.5675
vn 0.9417 0.1307 0.3101
vn 0.2775 0.6521 0.7055
vn -0.1635 0.3832 0.9091
vn -0.9049 -0.0000 0.4256
vn -0.4637 -0.1094 -0.8792
vn 0.4637 -0.1094 -0.8792
vn -0.0954 0.9920 0.0827
vn 0.0954 0.9920 0.0827
vt 0.553364 0.440906
vt 0.970107 0.381844
vt 0.498769 0.381844
vt 0.000000 0.440906
vt 1.000000 0.381844
vt 0.000000 0.381844
vt 0.500000 0.553364
vt 0.295163 0.498559
vt 0.704837 0.498559
vt 1.000000 0.970107
vt 0.000000 0.498769
vt 0.000000 0.970107
vt 0.000000 0.553364
vt 0.220427 0.878246
vt 0.436971 0.361139
vt 0.313540 0.486532
vt 0.313540 0.381844
vt 0.704837 0.507237
vt 0.704837 0.361139
vt 0.295163 0.507237
vt 1.000000 0.498769
vt 0.295163 0.436971
vt 0.646778 0.486532
vt 0.353222 0.381844
vt 0.646778 0.381844
vt 0.704837 0.436971
vt 0.353222 0.313540
vt 0.498559 0.507237
vt 0.646778 0.313540
vt 0.500000 0.501754
vt 0.414317 0.457645
vt 0.500000 0.422154
vt 0.351024 0.629011
vt 0.501024 0.543328
vt 0.501024 0.629011
vt 0.414317 0.351024
vt 0.500000 0.501024
vt 0.414317 0.501024
vt 0.351024 0.457645
vt 0.501024 0.457645
vt 0.351024 0.543328
vt 0.500000 0.351024
vt 0.585683 0.501024
vt 0.621174 0.543328
vt 0.535909 0.561323
vt 0.585683 0.629011
vt 0.500000 0.576197
vt 0.550784 0.525413
vt 0.464091 0.462394
vt 0.414317 0.629011
vt 0.500000 0.664503
vt 0.449217 0.525413
vt 0.378826 0.543328
vt 0.585683 0.457645
vt 0.464091 0.561323
vt 0.541575 0.543328
vt 0.500000 0.584903
vt 0.458425 0.543328
vt 0.529398 0.513931
vt 0.529398 0.572726
vt 0.470602 0.513931
vt 0.779573 0.645225
vt 0.779573 0.878246
vt 0.220427 0.645225
vt 1.000000 0.553364
vt 0.970107 0.440906
vt 1.000000 0.440906
vt 0.295163 0.361139
vt 0.353222 0.486532
vt 0.585683 0.351024
vt 0.535909 0.462394
vt 0.470602 0.572726
s 0
f 2/1/1 3/2/1 1/3/1
f 4/4/2 7/5/2 3/6/2
f 7/2/3 6/1/3 5/3/3
f 51/7/4 10/8/4 11/9/4
f 7/10/5 1/11/5 3/12/5
f 2/13/6 48/14/6 4/12/6
f 12/15/7 15/16/7 16/17/7
f 5/5/8 11/18/8 12/19/8
f 1/6/9 10/20/9 2/4/9
f 5/21/10 9/22/10 1/11/10
f 15/23/11 13/24/11 16/25/11
f 12/26/12 13/27/12 9/22/12
f 9/15/13 14/16/13 10/28/13
f 10/8/14 15/29/14 11/9/14
f 40/30/15 24/31/15 25/32/15
f 29/33/16 23/34/16 21/35/16
f 27/36/17 20/37/17 19/38/17
f 24/39/18 18/34/18 17/40/18
f 30/41/19 22/40/19 23/34/19
f 28/42/20 21/43/20 20/37/20
f 26/41/21 19/35/21 18/34/21
f 23/44/22 36/45/22 21/46/22
f 35/47/2 37/48/2 33/49/2
f 35/47/23 19/50/23 20/51/23
f 32/52/24 17/31/24 18/53/24
f 22/54/25 37/48/25 23/44/25
f 21/46/26 35/47/26 20/51/26
f 34/55/27 18/53/27 19/50/27
f 45/56/11 43/57/11 41/58/11
f 46/59/28 25/32/28 31/54/28
f 44/60/29 30/44/29 29/46/29
f 27/50/30 43/57/30 28/51/30
f 39/61/31 26/53/31 24/31/31
f 45/56/32 31/54/32 30/44/32
f 43/57/33 29/46/33 28/51/33
f 41/58/34 27/50/34 26/53/34
f 48/14/35 50/62/35 49/63/35
f 51/7/36 50/62/36 47/64/36
f 4/12/37 49/63/37 8/10/37
f 8/10/38 50/62/38 6/65/38
f 2/1/1 4/66/1 3/2/1
f 4/4/2 8/67/2 7/5/2
f 7/2/3 8/66/3 6/1/3
f 11/9/39 6/65/39 51/7/39
f 51/7/40 2/13/40 10/8/40
f 7/10/5 5/21/5 1/11/5
f 2/13/6 47/64/6 48/14/6
f 12/15/41 11/28/41 15/16/41
f 5/5/42 6/67/42 11/18/42
f 1/6/43 9/68/43 10/20/43
f 5/21/10 12/26/10 9/22/10
f 15/23/11 14/69/11 13/24/11
f 12/26/12 16/29/12 13/27/12
f 9/15/44 13/17/44 14/16/44
f 10/8/14 14/27/14 15/29/14
f 40/30/15 39/61/15 24/31/15
f 29/33/16 30/41/16 23/34/16
f 27/36/17 28/42/17 20/37/17
f 24/39/18 26/41/18 18/34/18
f 30/41/19 31/39/19 22/40/19
f 28/42/20 29/70/20 21/43/20
f 26/41/21 27/33/21 19/35/21
f 23/44/22 37/48/22 36/45/22
f 32/52/2 34/55/2 35/47/2
f 35/47/2 36/45/2 37/48/2
f 37/48/2 38/71/2 33/49/2
f 33/49/2 32/52/2 35/47/2
f 35/47/23 34/55/23 19/50/23
f 32/52/45 33/49/45 17/31/45
f 22/54/46 38/71/46 37/48/46
f 21/46/26 36/45/26 35/47/26
f 34/55/27 32/52/27 18/53/27
f 41/58/11 39/61/11 40/30/11
f 40/30/11 46/59/11 45/56/11
f 45/56/11 44/60/11 43/57/11
f 43/57/11 42/72/11 41/58/11
f 41/58/11 40/30/11 45/56/11
f 46/59/28 40/30/28 25/32/28
f 44/60/29 45/56/29 30/44/29
f 27/50/30 42/72/30 43/57/30
f 39/61/31 41/58/31 26/53/31
f 45/56/32 46/59/32 31/54/32
f 43/57/33 44/60/33 29/46/33
f 41/58/34 42/72/34 27/50/34
f 48/14/35 47/64/35 50/62/35
f 47/64/47 2/13/47 51/7/47
f 51/7/48 6/65/48 50/62/48
f 4/12/37 48/14/37 49/63/37
f 8/10/38 49/63/38 50/62/38
o Handle
v 0.004548 0.225559 0.425863
v 0.018388 1.126833 -0.469571
v 0.143095 0.225559 0.483251
v 0.078015 1.127669 -0.492897
v 0.200483 0.225559 0.621798
v 0.103672 1.129772 -0.551526
v 0.143095 0.225559 0.760345
v 0.080331 1.131908 -0.611114
v 0.004548 0.225559 0.817733
v 0.021664 1.132828 -0.636755
v -0.133999 0.225559 0.760345
v -0.037962 1.131991 -0.613429
v -0.191387 0.225559 0.621798
v -0.063620 1.129889 -0.554800
v -0.133999 0.225559 0.483251
v -0.040279 1.127752 -0.495212
v 0.015987 1.350139 0.392069
v 0.075518 1.373124 0.397345
v 0.100946 1.430698 0.409125
v 0.077375 1.489135 0.420508
v 0.018612 1.514204 0.424828
v -0.040919 1.491219 0.419552
v -0.066347 1.433645 0.407773
v -0.042776 1.375208 0.396389
v 0.017920 1.343105 -0.174122
v 0.077502 1.366522 -0.175410
v 0.103051 1.425132 -0.178912
v 0.079600 1.484602 -0.182576
v 0.020885 1.510096 -0.184256
v -0.038697 1.486679 -0.182967
v -0.064246 1.428069 -0.179465
v -0.040795 1.368599 -0.175801
v 0.068601 0.932196 0.548317
v 0.093089 0.932364 0.607481
v 0.068574 0.933263 0.666628
v 0.009417 0.934367 0.691110
v -0.049729 0.935029 0.666585
v -0.074217 0.934861 0.607421
v -0.049702 0.933962 0.548274
v 0.009455 0.932858 0.523792
v 0.013733 1.209709 0.510717
v 0.072935 1.212645 0.534938
v 0.097559 1.221527 0.593375
v -0.045122 1.232946 0.651761
v -0.069746 1.224064 0.593324
v -0.045367 1.214439 0.534902
v 0.076766 1.378047 0.115233
v 0.102307 1.436764 0.114846
v 0.078847 1.496341 0.114325
v 0.020129 1.521880 0.113973
v -0.039450 1.498420 0.113998
v -0.064991 1.439703 0.114384
v -0.041531 1.380126 0.114906
v 0.017186 1.354587 0.115257
v 0.018319 1.324206 -0.429715
v 0.077921 1.344768 -0.440895
v 0.103516 1.396211 -0.469153
v 0.080112 1.448402 -0.497937
v 0.021419 1.470767 -0.510384
v -0.038183 1.450206 -0.499204
v -0.063779 1.398763 -0.470945
v -0.040375 1.346572 -0.442162
v 0.018367 1.273021 -0.453562
v 0.077994 1.273858 -0.476888
v 0.103651 1.275960 -0.535518
v 0.080310 1.278097 -0.595106
v 0.021643 1.279016 -0.620747
v -0.037983 1.278180 -0.597421
v -0.063641 1.276077 -0.538792
v -0.040300 1.273941 -0.479203
v 0.077740 1.360718 -0.323213
v 0.103287 1.419369 -0.325952
v 0.079833 1.478884 -0.328798
v 0.021118 1.504398 -0.330084
v -0.038464 1.480967 -0.329057
v -0.064011 1.422316 -0.326318
v -0.040557 1.362802 -0.323472
v 0.018158 1.337287 -0.322186
v 0.073180 1.231152 0.651797
v 0.014080 1.235882 0.675981
v 0.070786 1.075291 0.546897
v 0.095301 1.077193 0.606020
v 0.070814 1.079865 0.665124
v 0.011669 1.081744 0.689588
v -0.047488 1.081728 0.665080
v -0.072003 1.079826 0.605957
v -0.047516 1.077154 0.546853
v 0.011629 1.075275 0.522389
v 0.015023 1.303770 0.469431
v 0.074398 1.319738 0.487311
v 0.099439 1.359899 0.530441
v 0.075476 1.400728 0.573555
v 0.016546 1.418309 0.591398
v -0.042829 1.402341 0.573519
v -0.067870 1.362180 0.530389
v -0.043907 1.321350 0.487275
v 0.018378 1.199927 -0.461567
v 0.078004 1.200764 -0.484893
v 0.103662 1.202866 -0.543522
v 0.080321 1.205003 -0.603110
v 0.021654 1.205922 -0.628751
v -0.037973 1.205086 -0.605425
v -0.063630 1.202983 -0.546796
v -0.040289 1.200847 -0.487208
v 0.017547 1.351830 -0.029507
v 0.077128 1.375277 -0.030177
v 0.102673 1.433959 -0.032157
v 0.079217 1.493503 -0.034288
v 0.020501 1.519027 -0.035321
v -0.039080 1.495580 -0.034652
v -0.064625 1.436898 -0.032672
v -0.041169 1.377354 -0.030541
vn 0.3637 -0.1013 0.9260
vn 0.9158 -0.0436 0.3992
vn 0.9309 0.0399 -0.3632
vn 0.3998 0.0998 -0.9112
vn -0.3637 0.1013 -0.9260
vn -0.9158 0.0436 -0.3992
vn -0.0000 -0.9994 -0.0358
vn -0.9309 -0.0399 0.3632
vn -0.3998 -0.0998 0.9112
vn -0.3809 -0.7910 -0.4788
vn -0.9231 -0.3258 -0.2045
vn -0.9129 0.3576 0.1971
vn -0.3576 0.8107 0.4635
vn 0.3796 0.7991 0.4663
vn 0.9228 0.3276 0.2027
vn 0.9133 -0.3552 -0.1994
vn 0.3593 -0.8024 -0.4765
vn -0.3989 -0.9154 0.0541
vn -0.9305 -0.3658 0.0196
vn -0.9169 0.3982 -0.0263
vn -0.3662 0.9288 -0.0566
vn 0.3989 0.9154 -0.0539
vn 0.9305 0.3658 -0.0196
vn 0.9169 -0.3982 0.0263
vn 0.3661 -0.9288 0.0569
vn 0.3797 0.1244 -0.9167
vn 0.9159 0.1315 -0.3794
vn 0.9139 0.1464 0.3786
vn 0.3777 0.1603 0.9119
vn -0.3774 0.1654 0.9112
vn -0.9122 0.1583 0.3779
vn -0.9143 0.1434 -0.3787
vn -0.3795 0.1292 -0.9161
vn 0.3613 -0.9323 -0.0147
vn 0.9151 -0.4033 -0.0041
vn 0.9282 0.3718 0.0132
vn 0.3938 0.9189 0.0246
vn -0.3617 0.9320 0.0212
vn -0.9151 0.4031 0.0051
vn -0.9281 -0.3720 -0.0120
vn -0.3934 -0.9192 -0.0178
vn -0.3981 -0.9107 0.1102
vn -0.9301 -0.3642 0.0484
vn -0.9159 0.3959 -0.0659
vn -0.3634 0.9167 -0.1663
vn 0.3963 0.9037 -0.1622
vn 0.9298 0.3637 -0.0573
vn 0.9164 -0.3966 0.0552
vn 0.3653 -0.9240 0.1129
vn -0.3405 -0.4275 0.8375
vn -0.9073 -0.2042 0.3675
vn -0.8901 0.2252 -0.3963
vn -0.3173 0.4728 -0.8221
vn 0.3503 0.4675 -0.8116
vn 0.9087 0.2077 -0.3622
vn 0.8884 -0.2210 0.4023
vn 0.3077 -0.4304 0.8486
vn 0.3662 -0.9298 0.0371
vn 0.9169 -0.3987 0.0171
vn 0.9305 0.3661 -0.0129
vn 0.3989 0.9163 -0.0352
vn -0.3662 0.9298 -0.0369
vn -0.9169 0.3987 -0.0171
vn -0.9305 -0.3661 0.0129
vn -0.3989 -0.9163 0.0354
vn -0.3832 -0.0739 -0.9207
vn -0.9240 -0.0188 -0.3820
vn -0.9232 0.0478 0.3813
vn -0.3813 0.0870 0.9203
vn 0.3832 0.0751 0.9206
vn 0.9240 0.0190 0.3820
vn 0.9232 -0.0476 -0.3813
vn 0.3813 -0.0859 -0.9204
vn 0.3828 -0.0149 -0.9237
vn 0.9239 -0.0179 -0.3823
vn 0.9237 -0.0102 0.3830
vn 0.3824 0.0036 0.9240
vn -0.3828 0.0153 0.9237
vn -0.9239 0.0180 0.3823
vn -0.9237 0.0103 -0.3830
vn -0.3824 -0.0033 -0.9240
vn 0.3665 -0.3782 -0.8501
vn 0.9168 -0.1727 -0.3601
vn 0.9209 0.1510 0.3594
vn 0.3758 0.3840 0.8434
vn -0.3646 0.3945 0.8434
vn -0.9164 0.1762 0.3594
vn -0.9212 -0.1478 -0.3600
vn -0.3772 -0.3679 -0.8499
vn 0.3637 -0.1014 0.9260
vn 0.3663 -0.9303 0.0186
vn 0.9170 -0.3988 0.0099
vn 0.9305 0.3663 -0.0047
vn 0.3989 0.9169 -0.0165
vn -0.3663 0.9303 -0.0187
vn -0.9170 0.3988 -0.0099
vn -0.9305 -0.3663 0.0047
vn -0.3989 -0.9169 0.0165
vn -0.3744 -0.7957 -0.4762
vn -0.9209 -0.3316 -0.2047
vn -0.9110 0.3619 0.1976
vn -0.3546 0.8122 0.4632
vn 0.3760 0.8010 0.4658
vn 0.9211 0.3320 0.2032
vn 0.9108 -0.3614 -0.1996
vn 0.3534 -0.8064 -0.4741
vn -0.3990 -0.9153 0.0542
vn -0.9305 -0.3657 0.0196
vn -0.9169 0.3981 -0.0263
vn -0.3662 0.9288 -0.0567
vn 0.3990 0.9154 -0.0539
vn 0.9305 0.3657 -0.0196
vn 0.9169 -0.3981 0.0264
vn 0.3662 -0.9288 0.0570
vn 0.3812 0.1242 -0.9161
vn 0.9158 0.1315 -0.3794
vn 0.9146 0.1466 0.3769
vn 0.3800 0.1606 0.9109
vn -0.3762 0.1652 0.9117
vn -0.9125 0.1584 0.3772
vn -0.9134 0.1436 -0.3808
vn -0.3771 0.1296 -0.9171
vn 0.3663 -0.9304 -0.0134
vn 0.9170 -0.3989 -0.0029
vn 0.9304 0.3665 0.0119
vn 0.3986 0.9168 0.0235
vn -0.3663 0.9303 0.0202
vn -0.9170 0.3989 0.0040
vn -0.9304 -0.3664 -0.0105
vn -0.3987 -0.9169 -0.0165
vn -0.3763 -0.9180 0.1250
vn -0.9228 -0.3805 0.0605
vn -0.9087 0.4105 -0.0757
vn -0.3500 0.9208 -0.1723
vn 0.3820 0.9086 -0.1688
vn 0.9236 0.3775 -0.0665
vn 0.9077 -0.4140 0.0684
vn 0.3446 -0.9302 0.1266
vn -0.3736 -0.3920 0.8407
vn -0.9179 -0.1810 0.3531
vn -0.8980 0.2121 -0.3854
vn -0.3276 0.4682 -0.8207
vn 0.3612 0.4624 -0.8098
vn 0.9156 0.1951 -0.3516
vn 0.9010 -0.1956 0.3873
vn 0.3392 -0.3970 0.8528
vn 0.3663 -0.9298 0.0371
vn 0.9170 -0.3986 0.0171
vn 0.9305 0.3661 -0.0128
vn -0.3663 0.9298 -0.0369
vn -0.9170 0.3986 -0.0171
vn -0.3989 -0.9163 0.0353
vn -0.3828 -0.0742 -0.9209
vn -0.9238 -0.0190 -0.3824
vn -0.9231 0.0481 0.3816
vn -0.3809 0.0872 0.9205
vn 0.3828 0.0753 0.9208
vn 0.9238 0.0192 0.3823
vn 0.9231 -0.0479 -0.3817
vn 0.3809 -0.0861 -0.9206
vn 0.3827 -0.0150 -0.9237
vn 0.9238 -0.0180 -0.3825
vn 0.9236 -0.0102 0.3831
vn 0.3823 0.0037 0.9240
vn -0.3827 0.0154 0.9237
vn -0.9238 0.0180 0.3825
vn -0.9236 0.0102 -0.3831
vn -0.3823 -0.0033 -0.9240
vn 0.3593 -0.3833 -0.8509
vn 0.9139 -0.1783 -0.3646
vn 0.9186 0.1553 0.3635
vn 0.3710 0.3865 0.8444
vn -0.3608 0.3963 0.8442
vn -0.9142 0.1801 0.3631
vn -0.9183 -0.1538 -0.3648
vn -0.3692 -0.3740 -0.8508
vn -0.3637 0.1014 -0.9260
vn 0.9305 0.3664 -0.0047
vn -0.9305 -0.3664 0.0047
vt 0.526340 0.887133
vt 0.511431 0.843373
vt 0.528619 0.854815
vt 0.510529 0.875691
vt 0.489332 0.842427
vt 0.489992 0.874745
vt 0.470782 0.852531
vt 0.472873 0.884848
vt 0.464985 0.867766
vt 0.482541 0.911526
vt 0.480817 0.879208
vt 0.510761 0.912472
vt 0.512068 0.880155
vt 0.467840 0.900084
vt 0.528639 0.902368
vt 0.531480 0.870051
vt 0.949353 0.322235
vt 0.899487 0.370050
vt 0.932267 0.306999
vt 0.982842 0.332338
vt 0.931112 0.385285
vt 1.020344 0.331392
vt 0.977571 0.395389
vt 0.052243 0.319950
vt 0.027607 0.394443
vt 0.020344 0.331392
vt 0.100025 0.367765
vt 0.064928 0.304715
vt 0.062225 0.357662
vt 0.030803 0.294611
vt 0.919719 0.358608
vt 1.030803 0.294611
vt 0.956771 0.295557
vt 0.591317 0.643827
vt 0.605012 0.563956
vt 0.664233 0.579192
vt 0.552687 0.653931
vt 0.709386 0.589295
vt 0.430500 0.652984
vt 0.292333 0.588349
vt 0.407495 0.641542
vt 0.341958 0.576907
vt 0.402410 0.561672
vt 0.469406 0.551568
vt 0.435363 0.626307
vt 0.538863 0.552514
vt 0.478787 0.616203
vt 0.525930 0.617149
vt 0.957283 -0.208473
vt 0.981962 0.100066
vt 0.975918 -0.235270
vt 1.011199 0.099120
vt 1.015807 -0.237486
vt 0.015807 -0.237486
vt 0.029600 0.109224
vt 0.039205 -0.213823
vt 0.027117 0.124459
vt 0.034571 -0.178142
vt 0.013748 -0.151345
vt 1.010838 0.135901
vt 0.987642 -0.149129
vt 1.013748 -0.151345
vt 0.989766 0.136848
vt 0.965341 -0.172792
vt 0.972160 0.126744
vt 0.573479 0.487879
vt 0.443955 0.486932
vt 1.062225 0.357662
vt 0.324180 0.497036
vt 0.213879 0.512272
vt 0.072658 0.383001
vt 1.086408 0.523714
vt 1.027607 0.394443
vt 0.934148 0.524660
vt 0.801719 0.514556
vt 0.560307 0.708462
vt 0.538388 0.757862
vt 0.549276 0.693227
vt 0.527754 0.718566
vt 0.544400 0.773098
vt 0.460593 0.717620
vt 0.518490 0.783202
vt 0.436693 0.706178
vt 0.472429 0.782255
vt 0.461868 0.755578
vt 0.452022 0.690942
vt 0.486580 0.745474
vt 0.483629 0.680838
vt 0.515206 0.746420
vt 0.519261 0.681785
vt 0.534906 0.837733
vt 0.513691 0.847837
vt 0.478684 0.846891
vt 0.461558 0.835449
vt 0.452154 0.770813
vt 0.468326 0.820213
vt 0.488565 0.810109
vt 0.512483 0.811056
vt 0.567882 0.628592
vt 0.967420 0.190443
vt 0.950325 0.238906
vt 0.960273 0.175207
vt 0.988284 0.200547
vt 0.960657 0.254142
vt 1.012868 0.199600
vt 0.986212 0.264245
vt 0.032293 0.188158
vt 0.015711 0.263299
vt 0.012868 0.199600
vt 0.046263 0.236621
vt 0.036196 0.172923
vt 0.019489 0.226518
vt 0.014316 0.162819
vt 0.971138 0.227464
vt 1.014316 0.162819
vt 0.977865 0.163765
vt 0.966872 0.111509
vt 0.011199 0.099120
vt 0.010838 0.135901
vt 1.019490 0.226518
vt 0.039723 0.251857
vt 1.015711 0.263299
vt 0.531302 0.822498
vt 0.690726 0.499321
vt 0.086408 0.523714
vt 1.292333 0.588349
s 0
f 53/73/49 149/74/49 148/75/49
f 55/76/50 150/77/50 149/74/50
f 57/78/51 151/79/51 150/77/51
f 59/80/52 152/81/52 151/79/52
f 152/81/53 63/82/53 153/83/53
f 153/83/54 65/84/54 154/85/54
f 65/84/55 61/86/55 57/78/55
f 154/85/56 67/87/56 155/88/56
f 155/88/57 53/73/57 148/75/57
f 147/89/58 68/90/58 140/91/58
f 146/92/59 75/93/59 147/89/59
f 145/94/60 74/95/60 146/92/60
f 144/96/61 73/97/61 145/98/61
f 71/99/62 144/96/62 143/100/62
f 70/101/63 143/100/63 142/102/63
f 69/103/64 142/104/64 141/105/64
f 68/90/65 141/105/65 140/91/65
f 83/106/66 156/107/66 163/108/66
f 82/109/67 163/108/67 162/110/67
f 81/111/68 162/110/68 161/112/68
f 80/113/69 161/112/69 160/114/69
f 159/115/70 80/113/70 160/114/70
f 158/116/71 79/117/71 159/115/71
f 157/118/72 78/119/72 158/116/72
f 156/107/73 77/120/73 157/118/73
f 52/121/74 84/122/74 54/123/74
f 54/123/75 85/124/75 56/125/75
f 56/126/76 86/127/76 58/128/76
f 58/128/77 87/129/77 60/130/77
f 87/129/78 62/131/78 60/130/78
f 88/132/79 64/133/79 62/134/79
f 89/135/80 66/136/80 64/133/80
f 90/137/81 52/121/81 66/136/81
f 68/90/82 98/138/82 69/103/82
f 69/103/83 99/139/83 70/140/83
f 70/101/84 100/141/84 71/99/84
f 71/99/85 101/142/85 72/143/85
f 101/142/86 73/97/86 72/143/86
f 102/144/87 74/95/87 73/145/87
f 103/146/88 75/93/88 74/95/88
f 104/147/89 68/90/89 75/93/89
f 128/148/90 106/149/90 129/150/90
f 127/151/91 113/152/91 128/148/91
f 126/153/92 112/154/92 127/151/92
f 125/155/93 111/156/93 126/153/93
f 109/157/94 125/155/94 124/158/94
f 108/159/95 124/158/95 123/160/95
f 107/161/96 123/160/96 122/162/96
f 106/149/97 122/162/97 129/150/97
f 121/163/98 106/149/98 113/152/98
f 120/164/99 113/152/99 112/154/99
f 119/165/100 112/154/100 111/156/100
f 118/166/101 111/156/101 110/167/101
f 109/157/102 118/166/102 110/167/102
f 108/159/103 117/168/103 109/157/103
f 107/161/104 116/169/104 108/159/104
f 106/149/105 115/170/105 107/161/105
f 129/150/106 77/120/106 76/171/106
f 122/162/107 78/119/107 77/120/107
f 123/160/108 79/117/108 78/119/108
f 124/158/109 80/113/109 79/117/109
f 80/113/110 126/153/110 81/111/110
f 81/111/111 127/151/111 82/109/111
f 82/109/112 128/148/112 83/106/112
f 83/106/113 129/150/113 76/171/113
f 138/172/114 92/173/114 139/174/114
f 137/175/115 97/176/115 138/172/115
f 136/177/116 96/178/116 137/175/116
f 135/179/117 95/180/117 136/181/117
f 130/182/118 135/179/118 134/183/118
f 94/184/119 134/183/119 133/185/119
f 93/186/120 133/187/120 132/188/120
f 92/173/121 132/188/121 139/174/121
f 139/174/122 84/122/122 91/189/122
f 132/188/123 85/124/123 84/122/123
f 133/185/124 86/127/124 85/190/124
f 134/183/125 87/129/125 86/127/125
f 87/129/126 136/181/126 88/191/126
f 88/132/127 137/175/127 89/135/127
f 89/135/128 138/172/128 90/137/128
f 90/137/129 139/174/129 91/189/129
f 140/91/130 93/186/130 92/173/130
f 141/105/131 94/192/131 93/186/131
f 142/102/132 130/182/132 94/184/132
f 143/100/133 131/193/133 130/182/133
f 131/193/134 145/98/134 95/180/134
f 95/194/135 146/92/135 96/178/135
f 96/178/136 147/89/136 97/176/136
f 97/176/137 140/91/137 92/173/137
f 121/163/57 148/75/57 114/195/57
f 120/164/56 155/88/56 121/163/56
f 119/165/54 154/85/54 120/164/54
f 118/166/53 153/83/53 119/165/53
f 151/79/52 118/166/52 117/168/52
f 150/77/51 117/168/51 116/169/51
f 149/74/50 116/169/50 115/170/50
f 148/75/138 115/170/138 114/195/138
f 156/107/139 98/138/139 105/196/139
f 157/118/140 99/139/140 98/138/140
f 158/116/141 100/141/141 99/139/141
f 159/115/142 101/142/142 100/141/142
f 101/142/143 161/112/143 102/197/143
f 102/144/144 162/110/144 103/146/144
f 103/146/145 163/108/145 104/147/145
f 104/147/146 156/107/146 105/196/146
f 53/73/49 55/76/49 149/74/49
f 55/76/50 57/78/50 150/77/50
f 57/78/51 59/80/51 151/79/51
f 59/80/52 61/86/52 152/81/52
f 152/81/53 61/86/53 63/82/53
f 153/83/54 63/82/54 65/84/54
f 57/78/55 55/76/55 53/73/55
f 53/73/55 67/87/55 65/84/55
f 65/84/55 63/82/55 61/86/55
f 61/86/55 59/80/55 57/78/55
f 57/78/55 53/73/55 65/84/55
f 154/85/56 65/84/56 67/87/56
f 155/88/57 67/87/57 53/73/57
f 147/89/147 75/93/147 68/90/147
f 146/92/148 74/95/148 75/93/148
f 145/94/149 73/145/149 74/95/149
f 144/96/150 72/143/150 73/97/150
f 71/99/151 72/143/151 144/96/151
f 70/101/152 71/99/152 143/100/152
f 69/103/153 70/140/153 142/104/153
f 68/90/154 69/103/154 141/105/154
f 83/106/155 76/171/155 156/107/155
f 82/109/156 83/106/156 163/108/156
f 81/111/157 82/109/157 162/110/157
f 80/113/158 81/111/158 161/112/158
f 159/115/159 79/117/159 80/113/159
f 158/116/160 78/119/160 79/117/160
f 157/118/161 77/120/161 78/119/161
f 156/107/162 76/171/162 77/120/162
f 52/121/163 91/189/163 84/122/163
f 54/123/164 84/122/164 85/124/164
f 56/126/165 85/190/165 86/127/165
f 58/128/166 86/127/166 87/129/166
f 87/129/167 88/191/167 62/131/167
f 88/132/168 89/135/168 64/133/168
f 89/135/169 90/137/169 66/136/169
f 90/137/170 91/189/170 52/121/170
f 68/90/171 105/196/171 98/138/171
f 69/103/172 98/138/172 99/139/172
f 70/101/173 99/139/173 100/141/173
f 71/99/174 100/141/174 101/142/174
f 101/142/175 102/197/175 73/97/175
f 102/144/176 103/146/176 74/95/176
f 103/146/177 104/147/177 75/93/177
f 104/147/178 105/196/178 68/90/178
f 128/148/179 113/152/179 106/149/179
f 127/151/180 112/154/180 113/152/180
f 126/153/181 111/156/181 112/154/181
f 125/155/182 110/167/182 111/156/182
f 109/157/183 110/167/183 125/155/183
f 108/159/184 109/157/184 124/158/184
f 107/161/185 108/159/185 123/160/185
f 106/149/186 107/161/186 122/162/186
f 121/163/187 114/195/187 106/149/187
f 120/164/188 121/163/188 113/152/188
f 119/165/189 120/164/189 112/154/189
f 118/166/190 119/165/190 111/156/190
f 109/157/191 117/168/191 118/166/191
f 108/159/192 116/169/192 117/168/192
f 107/161/193 115/170/193 116/169/193
f 106/149/194 114/195/194 115/170/194
f 129/150/195 122/162/195 77/120/195
f 122/162/196 123/160/196 78/119/196
f 123/160/197 124/158/197 79/117/197
f 124/158/109 125/155/109 80/113/109
f 80/113/198 125/155/198 126/153/198
f 81/111/199 126/153/199 127/151/199
f 82/109/112 127/151/112 128/148/112
f 83/106/200 128/148/200 129/150/200
f 138/172/201 97/176/201 92/173/201
f 137/175/202 96/178/202 97/176/202
f 136/177/203 95/194/203 96/178/203
f 135/179/204 131/193/204 95/180/204
f 130/182/205 131/193/205 135/179/205
f 94/184/206 130/182/206 134/183/206
f 93/186/207 94/192/207 133/187/207
f 92/173/208 93/186/208 132/188/208
f 139/174/209 132/188/209 84/122/209
f 132/188/210 133/187/210 85/124/210
f 133/185/211 134/183/211 86/127/211
f 134/183/212 135/179/212 87/129/212
f 87/129/213 135/179/213 136/181/213
f 88/132/214 136/177/214 137/175/214
f 89/135/215 137/175/215 138/172/215
f 90/137/216 138/172/216 139/174/216
f 140/91/217 141/105/217 93/186/217
f 141/105/218 142/104/218 94/192/218
f 142/102/219 143/100/219 130/182/219
f 143/100/220 144/96/220 131/193/220
f 131/193/221 144/96/221 145/98/221
f 95/194/222 145/94/222 146/92/222
f 96/178/223 146/92/223 147/89/223
f 97/176/224 147/89/224 140/91/224
f 121/163/57 155/88/57 148/75/57
f 120/164/56 154/85/56 155/88/56
f 119/165/54 153/83/54 154/85/54
f 118/166/225 152/81/225 153/83/225
f 151/79/52 152/81/52 118/166/52
f 150/77/51 151/79/51 117/168/51
f 149/74/50 150/77/50 116/169/50
f 148/75/138 149/74/138 115/170/138
f 156/107/139 157/118/139 98/138/139
f 157/118/140 158/116/140 99/139/140
f 158/116/226 159/115/226 100/141/226
f 159/115/142 160/114/142 101/142/142
f 101/142/143 160/114/143 161/112/143
f 102/144/144 161/198/144 162/110/144
f 103/146/227 162/110/227 163/108/227
f 104/147/146 163/108/146 156/107/146
