# Blender 4.0.2
# www.blender.org
o Base
v -0.242313 0.001926 0.125354
v -0.242313 0.125826 0.125354
v -0.242313 0.001926 -0.125354
v -0.242313 0.125826 -0.125354
v 0.242313 0.001926 0.125354
v 0.242313 0.125826 0.125354
v 0.242313 0.001926 -0.125354
v 0.242313 0.125826 -0.125354
vn -1.0000 -0.0000 -0.0000
vn -0.0000 -0.0000 -1.0000
vn 1.0000 -0.0000 -0.0000
vn -0.0000 -0.0000 1.0000
vn -0.0000 -1.0000 -0.0000
vn -0.0000 1.0000 -0.0000
vt 0.241338 0.627831
vt 0.758662 0.372169
vt 0.241338 0.372169
vt 0.000000 0.627831
vt 1.000000 0.372169
vt 0.000000 0.372169
vt 0.758662 0.627831
vt 1.000000 0.627831
vt 1.000000 0.758662
vt 0.000000 0.241338
vt 0.000000 0.758662
vt 1.000000 0.241338
s 0
f 2/1/1 3/2/1 1/3/1
f 4/4/2 7/5/2 3/6/2
f 8/7/3 5/3/3 7/2/3
f 6/8/4 1/6/4 5/5/4
f 7/9/5 1/10/5 3/11/5
f 4/11/6 6/12/6 8/9/6
f 2/1/1 4/7/1 3/2/1
f 4/4/2 8/8/2 7/5/2
f 8/7/3 6/1/3 5/3/3
f 6/8/4 2/4/4 1/6/4
f 7/9/5 5/12/5 1/10/5
f 4/11/6 2/10/6 6/12/6
o Handle
v -0.035022 -0.007797 0.152583
v -0.035022 0.091926 0.123900
v -0.035022 -0.007797 -0.152583
v -0.035022 0.091926 -0.123900
v 0.035022 -0.007797 0.152583
v 0.035022 0.091926 0.123900
v 0.035022 -0.007797 -0.152583
v 0.035022 0.091926 -0.123900
v -0.035022 0.021881 0.227583
v -0.035022 0.091926 0.184801
v -0.035022 0.091926 -0.184801
v -0.035022 0.021881 -0.227583
v 0.035022 0.021881 -0.227583
v 0.035022 0.091926 -0.184801
v 0.035022 0.091926 0.184801
v 0.035022 0.021881 0.227583
v -0.035022 0.584087 -0.120513
v 0.035022 0.584087 -0.120513
v 0.035022 0.584087 0.120513
v -0.035022 0.584087 0.120513
v -0.035022 0.591926 -0.184801
v 0.035022 0.591926 -0.184801
v 0.035022 0.591926 0.184801
v -0.035022 0.591926 0.184801
v 0.035022 0.642845 0.152583
v -0.035022 0.642845 0.152583
v 0.035022 0.666926 0.227583
v -0.035022 0.666926 0.227583
v -0.035022 0.642845 -0.152583
v 0.035022 0.642845 -0.152583
v -0.035022 0.666926 -0.227583
v 0.035022 0.666926 -0.227583
v -0.038215 0.341926 -0.135195
v 0.038215 0.341926 0.135195
v -0.038215 0.341926 0.135195
v 0.038215 0.341926 -0.135195
v -0.035022 0.591926 0.000000
v 0.035022 0.591926 0.000000
vn -1.0000 -0.0000 -0.0000
vn -0.0000 -0.9298 -0.3680
vn 1.0000 -0.0000 -0.0000
vn -0.0000 -1.0000 -0.0000
vn -0.0000 1.0000 -0.0000
vn -0.0000 0.5212 -0.8534
vn -0.0000 0.5212 0.8534
vn -0.9862 -0.0200 -0.1644
vn -0.0000 -0.0000 1.0000
vn -0.0000 -0.9298 0.3680
vn -0.0000 -0.0000 -1.0000
vn 0.9862 -0.0200 0.1644
vn -0.0000 -0.0605 -0.9982
vn -0.0000 -0.0605 0.9982
vn -0.9824 0.0242 0.1851
vn 0.9824 0.0242 -0.1851
vn -0.0000 0.9521 -0.3057
vn -0.0000 -0.4955 0.8686
vn -0.0000 0.9521 0.3057
vn -0.0000 -0.4955 -0.8686
vn -0.0000 -0.9979 0.0649
vn -0.0000 -0.9979 -0.0649
vn -0.0000 0.0451 0.9990
vn -0.0000 0.0451 -0.9990
vn -0.9999 0.0131 0.0016
vn 0.9999 0.0131 -0.0016
vn -0.9999 -0.0128 -0.0000
vn 0.9999 -0.0128 -0.0000
vt -0.737463 -1.197244
vt 1.173696 -0.816384
vt 1.737463 -1.197244
vt 0.309570 1.394364
vt 0.690430 1.802170
vt 0.690430 1.394364
vt -0.173695 -0.816384
vt 0.309570 -0.264950
vt 0.309570 1.238403
vt 0.690430 -0.108988
vt 0.690430 1.238403
vt 0.309570 -0.816384
vt 0.690430 -1.197244
vt 0.309570 -1.197244
vt 0.690430 -0.816384
vt 1.235112 0.542968
vt 1.504840 1.902319
vt 0.309570 1.902319
vt 0.690430 -0.264950
vt 0.309570 -0.672755
vt -0.329657 2.179189
vt 0.500000 1.902319
vt 0.690430 1.902319
vt -0.235112 0.542968
vt -0.504840 1.902319
vt 0.292210 0.542968
vt 0.690430 1.859695
vt 0.707790 0.542968
vt 0.309570 1.859695
vt -0.504840 -0.816384
vt -0.155279 1.859695
vt 1.504840 -0.816384
vt 1.155279 1.859695
vt 0.690430 -0.672755
vt 0.309570 2.310125
vt 0.309570 1.802170
vt 0.690430 2.310125
vt 0.309570 0.564707
vt 0.690430 1.219986
vt 0.690430 0.564707
vt 0.309570 -0.090572
vt 0.690430 -0.090572
vt 1.329657 -1.358618
vt -0.329657 -1.358618
vt 0.309570 -0.108988
vt 1.329657 2.179189
vt 1.737463 2.310125
vt -0.737463 2.310125
vt 0.309570 1.219986
s 0
f 17/13/7 12/14/7 20/15/7
f 11/16/8 21/17/8 15/18/8
f 21/15/9 14/19/9 24/13/9
f 15/18/10 9/20/10 11/16/10
f 12/21/11 14/22/11 16/23/11
f 19/24/12 21/25/12 20/26/12
f 23/27/13 17/26/13 24/25/13
f 12/14/14 41/28/14 29/29/14
f 23/27/15 32/30/15 18/24/15
f 13/31/16 17/32/16 9/20/16
f 34/33/7 29/29/7 45/34/7
f 19/24/17 30/35/17 22/27/17
f 14/19/18 42/36/18 31/37/18
f 43/38/19 27/39/19 42/40/19
f 44/40/20 25/41/20 41/38/20
f 18/42/21 28/43/21 43/36/21
f 22/44/22 26/45/22 44/28/22
f 34/20/23 35/46/23 33/31/23
f 46/34/9 30/29/9 33/33/9
f 31/35/24 36/47/24 32/30/24
f 38/18/25 39/48/25 37/16/25
f 29/30/26 40/49/26 30/35/26
f 33/31/11 37/16/11 34/20/11
f 45/50/27 26/51/27 46/52/27
f 28/53/28 46/52/28 27/54/28
f 16/27/29 41/38/29 12/24/29
f 10/24/30 42/40/30 14/27/30
f 11/55/7 9/56/7 17/13/7
f 17/13/7 18/42/7 10/19/7
f 12/14/7 19/44/7 20/15/7
f 17/13/7 10/19/7 12/14/7
f 20/15/7 11/55/7 17/13/7
f 11/16/8 20/48/8 21/17/8
f 13/56/9 15/55/9 21/15/9
f 21/15/9 22/44/9 16/14/9
f 14/19/9 23/42/9 24/13/9
f 21/15/9 16/14/9 14/19/9
f 24/13/9 13/56/9 21/15/9
f 15/18/10 13/31/10 9/20/10
f 12/21/11 10/57/11 14/22/11
f 19/24/12 22/27/12 21/25/12
f 23/27/13 18/24/13 17/26/13
f 29/29/7 19/44/7 12/14/7
f 41/28/31 25/45/31 29/29/31
f 23/27/15 31/35/15 32/30/15
f 13/31/16 24/46/16 17/32/16
f 37/58/7 39/59/7 29/29/7
f 29/29/7 25/45/7 45/34/7
f 45/34/7 28/43/7 32/37/7
f 32/37/7 36/60/7 34/33/7
f 34/33/7 37/58/7 29/29/7
f 45/34/7 32/37/7 34/33/7
f 19/24/17 29/30/17 30/35/17
f 31/37/9 23/42/9 14/19/9
f 42/36/32 27/43/32 31/37/32
f 43/38/19 28/41/19 27/39/19
f 44/40/20 26/39/20 25/41/20
f 43/36/33 10/19/33 18/42/33
f 18/42/7 32/37/7 28/43/7
f 44/28/34 16/14/34 22/44/34
f 22/44/9 30/29/9 26/45/9
f 34/20/23 36/32/23 35/46/23
f 31/37/9 27/43/9 46/34/9
f 46/34/9 26/45/9 30/29/9
f 30/29/9 40/59/9 38/58/9
f 33/33/9 35/60/9 31/37/9
f 30/29/9 38/58/9 33/33/9
f 33/33/9 31/37/9 46/34/9
f 31/35/24 35/49/24 36/47/24
f 38/18/25 40/17/25 39/48/25
f 29/30/26 39/47/26 40/49/26
f 33/31/11 38/18/11 37/16/11
f 45/50/27 25/61/27 26/51/27
f 28/53/28 45/50/28 46/52/28
f 16/27/29 44/40/29 41/38/29
f 10/24/30 43/38/30 42/40/30
